<svg xmlns="http://www.w3.org/2000/svg" xmlns:svg="http://www.w3.org/2000/svg" id="svg89" width="438.212" height="393.834" version="1.1" viewBox="0 0 115.944 104.202"><defs id="defs86"><linearGradient id="a" x1="198.099" x2="942.234" y1="1683.073" y2="394.261" gradientTransform="matrix(0.02243327,0,0,-0.02243327,95.392211,215.44714)" gradientUnits="userSpaceOnUse"><stop id="stop51" offset="0" stop-color="#5a62c3"/><stop id="stop53" offset=".5" stop-color="#4d55bd"/><stop id="stop55" offset="1" stop-color="#3940ab"/></linearGradient></defs><g id="layer1" transform="translate(-4.1713723,-152.13543)"><g id="图层_2" data-name="图层 2" transform="matrix(0.41686246,0,0,0.41686246,4.1713323,152.13543)" style="fill:#5865f2;fill-opacity:1"><g id="Discord_Logos" data-name="Discord Logos" style="fill:#5865f2;fill-opacity:1"><g id="Discord_Logo_-_Large_-_White" data-name="Discord Logo - Large - White" style="fill:#5865f2;fill-opacity:1"><path id="path6" d="M 107.7,8.07 A 105.15,105.15 0 0 0 81.47,0 72.06,72.06 0 0 0 78.11,6.83 97.68,97.68 0 0 0 49,6.83 72.37,72.37 0 0 0 45.64,0 105.89,105.89 0 0 0 19.39,8.09 C 2.79,32.65 -1.71,56.6 0.54,80.21 v 0 A 105.73,105.73 0 0 0 32.71,96.36 77.7,77.7 0 0 0 39.6,85.25 68.42,68.42 0 0 1 28.75,80.07 c 0.91,-0.66 1.8,-1.34 2.66,-2 a 75.57,75.57 0 0 0 64.32,0 c 0.87,0.71 1.76,1.39 2.66,2 a 68.68,68.68 0 0 1 -10.87,5.19 77,77 0 0 0 6.89,11.1 105.25,105.25 0 0 0 32.19,-16.14 v 0 C 129.24,52.84 122.09,29.11 107.7,8.07 Z M 42.45,65.69 C 36.18,65.69 31,60 31,53 31,46 36,40.26 42.43,40.26 48.86,40.26 54,46 53.89,53 53.78,60 48.84,65.69 42.45,65.69 Z m 42.24,0 C 78.41,65.69 73.25,60 73.25,53 c 0,-7 5,-12.74 11.44,-12.74 6.44,0 11.54,5.74 11.43,12.74 -0.11,7 -5.04,12.69 -11.43,12.69 z" class="cls-1" style="fill:#5865f2;fill-opacity:1"/></g></g></g><g id="g1413" transform="matrix(0.87582224,0,0,0.87582224,-25.587976,148.77014)"><path id="path15" fill="#00ac47" d="M 47.601424,95.39633 V 76.04506 h -8.45501 c -2.48887,0 -4.5014,2.02444 -4.5014,4.51331 v 40.00056 c 0,2.01253 2.42932,3.01284 3.84643,1.59574 l 9.30052,-9.30052 h 26.48444 c 2.48887,0 4.5014,-2.01253 4.5014,-4.5014 v -8.45502 h -26.66306 c -2.48888,0 -4.51332,-2.01253 -4.51332,-4.5014 z" style="stroke-width:.119085"/><path id="path17" fill="#5bb974" d="m 87.232824,63.27918 h -35.11808 c -2.48888,0 -4.50141,2.01253 -4.50141,4.5014 v 8.26448 h 26.66307 c 2.48887,0 4.5014,2.01253 4.5014,4.5014 v 19.33936 h 8.45502 c 2.48887,0 4.5014,-2.01253 4.5014,-4.5014 V 67.78058 c 0,-2.48887 -2.01253,-4.5014 -4.5014,-4.5014 z" style="stroke-width:.119085"/><path id="path19" fill="#00832d" d="m 74.276404,76.04506 h -26.67498 v 19.339363 c 0,2.488867 2.01254,4.501397 4.50141,4.501397 h 26.66306 V 80.55837 c 0.0119,-2.48887 -2.00062,-4.51331 -4.48949,-4.51331 z" style="stroke-width:.119085"/></g><g id="g1429" transform="matrix(1.04,0,0,1.04,-31.093018,28.907417)"><path id="path27" fill="#5059c9" d="m 130.26779,186.33249 h 12.91513 c 1.22016,0 2.20929,0.98913 2.20929,2.2093 0,0 0,0 0,0 v 11.76396 c 0,4.48443 -3.63533,8.11976 -8.11976,8.11976 v 0 h -0.0384 c -4.48443,5e-4 -8.12028,-3.63419 -8.12093,-8.11862 0,-4.2e-4 0,-5e-4 0,-0.001 v -12.81856 c 2e-5,-0.63771 0.51697,-1.15467 1.15466,-1.15467 z" style="stroke-width:.0224333"/><circle id="circle29" cx="138.997" cy="178.774" r="5.233" fill="#5059c9" style="stroke-width:.0224333"/><circle id="circle31" cx="122.718" cy="176.449" r="7.558" fill="#7b83eb" style="stroke-width:.0224333"/><path id="path33" fill="#7b83eb" d="m 132.79571,186.33249 h -21.31862 c -1.20563,0.0298 -2.15936,1.03039 -2.13139,2.23606 V 201.986 c -0.16836,7.23515 5.55576,13.23921 12.79071,13.41628 7.23495,-0.17707 12.95905,-6.18113 12.79071,-13.41628 v -13.41745 c 0.028,-1.20567 -0.92578,-2.20622 -2.13141,-2.23606 z" style="stroke-width:.0224333"/><path id="path35" d="m 123.29919,186.33249 v 18.80233 c -0.006,0.86222 -0.52828,1.63682 -1.32558,1.96511 -0.25385,0.10739 -0.52669,0.16273 -0.80232,0.1628 h -10.80234 c -0.15115,-0.38372 -0.29069,-0.76744 -0.40698,-1.16278 -0.40703,-1.33427 -0.61472,-2.72132 -0.61629,-4.11628 v -13.41862 c -0.028,-1.20374 0.92421,-2.20272 2.12791,-2.23256 z" opacity=".1" style="stroke-width:.0224333"/><path id="path37" d="m 122.13641,186.33249 v 19.96511 c 0,0.27564 -0.0554,0.54848 -0.1628,0.80233 -0.32829,0.7973 -1.10289,1.31982 -1.96511,1.32558 h -9.09303 c -0.19768,-0.38372 -0.38372,-0.76744 -0.54652,-1.16278 -0.1628,-0.39534 -0.29069,-0.76744 -0.40698,-1.16278 -0.40703,-1.33425 -0.61472,-2.72132 -0.61629,-4.11628 v -13.41862 c -0.028,-1.20374 0.92421,-2.20272 2.12791,-2.23256 z" opacity=".2" style="stroke-width:.0224333"/><path id="path39" d="m 122.13641,186.33249 v 17.63955 c -0.009,1.17153 -0.95638,2.11904 -2.12791,2.12791 h -10.04651 c -0.40703,-1.33425 -0.61472,-2.72132 -0.61629,-4.11628 v -13.41862 c -0.0279,-1.20374 0.92421,-2.20272 2.12791,-2.23256 z" opacity=".2" style="stroke-width:.0224333"/><path id="path41" d="m 120.9736,186.33249 v 17.63955 c -0.009,1.17153 -0.95637,2.11904 -2.1279,2.12791 h -8.88371 c -0.40703,-1.33425 -0.61472,-2.72132 -0.61629,-4.11628 v -13.41862 c -0.0279,-1.20374 0.92421,-2.20272 2.12791,-2.23256 z" opacity=".2" style="stroke-width:.0224333"/><path id="path43" d="m 123.29919,180.32087 v 3.66279 c -0.19768,0.0116 -0.38372,0.0233 -0.5814,0.0233 -0.19768,0 -0.38372,-0.0116 -0.5814,-0.0233 -0.39249,-0.026 -0.78176,-0.0883 -1.16279,-0.18604 -2.35466,-0.55762 -4.29998,-2.20898 -5.23255,-4.44185 -0.16047,-0.37497 -0.28504,-0.76432 -0.37211,-1.16278 h 5.80232 c 1.17338,0.004 2.12347,0.95451 2.12793,2.12788 z" opacity=".1" style="stroke-width:.0224333"/><path id="path45" d="m 122.13641,181.48366 v 2.5 c -0.39249,-0.026 -0.78175,-0.0883 -1.16278,-0.18604 -2.35467,-0.55762 -4.29999,-2.20898 -5.23256,-4.44185 h 4.26743 c 1.17335,0.005 2.12345,0.95454 2.12791,2.12789 z" opacity=".2" style="stroke-width:.0224333"/><path id="path47" d="m 122.13641,181.48366 v 2.5 c -0.39249,-0.026 -0.78175,-0.0883 -1.16278,-0.18604 -2.35467,-0.55762 -4.29999,-2.20898 -5.23256,-4.44185 h 4.26743 c 1.17335,0.005 2.12345,0.95454 2.12791,2.12789 z" opacity=".2" style="stroke-width:.0224333"/><path id="path49" d="m 120.9736,181.48366 v 2.31394 c -2.35466,-0.55762 -4.29998,-2.20898 -5.23255,-4.44185 h 3.10465 c 1.17337,0.005 2.12344,0.95456 2.1279,2.12791 z" opacity=".2" style="stroke-width:.0224333"/><path id="path58" fill="url(#a)" d="M 97.523596,179.35575 H 118.8422 c 1.17714,0 2.13138,0.95426 2.13138,2.13138 v 21.3186 c 0,1.17714 -0.95426,2.13139 -2.13138,2.13139 H 97.523596 c -1.17714,0 -2.131385,-0.95427 -2.131385,-2.13139 v -21.3186 c 0,-1.17712 0.954265,-2.13138 2.131385,-2.13138 z" style="fill:url(#a);stroke-width:.0224333"/><path id="path60" fill="#fff" d="m 113.79222,187.4697 h -4.26164 v 11.60466 h -2.7151 V 187.4697 h -4.24186 v -2.25115 h 11.2186 z" style="stroke-width:.0224333"/></g><g id="g1357" transform="matrix(0.33616522,0,0,0.33616522,71.746586,152.50929)"><path id="path70" fill="#e01e5a" d="M 27.2,80 C 27.2,87.3 21.3,93.2 14,93.2 6.7,93.2 0.8,87.3 0.8,80 0.8,72.7 6.7,66.8 14,66.8 h 13.2 z m 6.6,0 c 0,-7.3 5.9,-13.2 13.2,-13.2 7.3,0 13.2,5.9 13.2,13.2 v 33 c 0,7.3 -5.9,13.2 -13.2,13.2 -7.3,0 -13.2,-5.9 -13.2,-13.2 z"/><path id="path72" fill="#36c5f0" d="M 47,27 C 39.7,27 33.8,21.1 33.8,13.8 33.8,6.5 39.7,0.6 47,0.6 c 7.3,0 13.2,5.9 13.2,13.2 V 27 Z m 0,6.7 c 7.3,0 13.2,5.9 13.2,13.2 0,7.3 -5.9,13.2 -13.2,13.2 H 13.9 C 6.6,60.1 0.7,54.2 0.7,46.9 0.7,39.6 6.6,33.7 13.9,33.7 Z"/><path id="path74" fill="#2eb67d" d="m 99.9,46.9 c 0,-7.3 5.9,-13.2 13.2,-13.2 7.3,0 13.2,5.9 13.2,13.2 0,7.3 -5.9,13.2 -13.2,13.2 H 99.9 Z m -6.6,0 c 0,7.3 -5.9,13.2 -13.2,13.2 -7.3,0 -13.2,-5.9 -13.2,-13.2 V 13.8 c 0,-7.3 5.9,-13.2 13.2,-13.2 7.3,0 13.2,5.9 13.2,13.2 z"/><path id="path76" fill="#ecb22e" d="m 80.1,99.8 c 7.3,0 13.2,5.9 13.2,13.2 0,7.3 -5.9,13.2 -13.2,13.2 -7.3,0 -13.2,-5.9 -13.2,-13.2 V 99.8 Z m 0,-6.6 c -7.3,0 -13.2,-5.9 -13.2,-13.2 0,-7.3 5.9,-13.2 13.2,-13.2 h 33.1 c 7.3,0 13.2,5.9 13.2,13.2 0,7.3 -5.9,13.2 -13.2,13.2 z"/></g></g></svg>