<svg xmlns="http://www.w3.org/2000/svg" id="Layer_2" data-name="Layer 2" version="1.1" viewBox="0 0 730 300"><defs><style>.cls-1,.cls-2,.cls-3{fill:#663367;stroke-width:0}.cls-2,.cls-3{fill:#848582}</style></defs><g><path d="M219.26,145.29h-47.72v3.94c.02,4.77,2.92,7.69,7.67,7.69,10.39-.02,20.77-.05,31.18-.07.94-.02,1.93-.05,2.86-.3,5.73-1.52,6.79-6.26,6.01-11.26Z" class="cls-2"/><path d="M229.51,86.77c-1.73-1.75-3.87-2.63-6.43-2.63-2.76,0-5.02.85-6.77,2.58-.85.83-1.5,1.8-1.91,2.88h-57.66v92.53h7.48s0-85.05,0-85.05h28.97c0,3.34,0,6.68-.05,10.02-.02.64-.12,1.34-.32,1.93-3.43,9.7-6.89,19.37-10.27,29.04-.3.85-.67,1.13-1.52,1.11-2.99-.05-5.96,0-8.94.02-.99,0-1.38.39-1.38,1.27s.44,1.29,1.5,1.27c2.86,0,5.69-.07,8.54-.09,12.9-.05,25.79-.12,38.71-.16,1.17,0,1.73-.44,1.7-1.29s-.51-1.22-1.66-1.22c-2.46,0-4.91,0-7.35.05-.71.02-1.04-.21-1.31-.88-4.1-9.67-8.2-19.32-12.3-28.99-.14-.3-.21-.62-.21-.94v-11.12h16.07c.39.94.97,1.84,1.7,2.69,1.64,1.84,3.91,2.79,6.86,2.79,2.6,0,4.79-.88,6.52-2.65,1.73-1.75,2.6-3.94,2.6-6.61s-.88-4.77-2.6-6.54ZM206.43,138.98h-19.55c2.92-8.24,5.85-16.51,8.77-24.76h.25c3.5,8.2,6.98,16.4,10.52,24.76ZM225.71,96.47c-.78.88-1.7,1.31-2.76,1.31s-2.05-.44-2.83-1.34c-.78-.9-1.17-1.98-1.17-3.25,0-1.17.41-2.16,1.2-2.99.78-.85,1.73-1.27,2.81-1.27s1.98.46,2.76,1.34c.78.9,1.17,1.93,1.17,3.13s-.39,2.19-1.17,3.06Z" class="cls-2"/><path d="M73.23,165.88H25.52c0,1.43-.02,2.67,0,3.91,0,4.77,2.92,7.69,7.65,7.69,10.39-.02,20.8-.05,31.18-.07.94,0,1.93-.05,2.86-.3,5.73-1.52,6.79-6.26,6.03-11.24Z" class="cls-2"/><path d="M28.95,110.35c-.44-1.22-1.13-2.33-2.07-3.29-1.75-1.75-3.89-2.63-6.45-2.63-2.74,0-5,.85-6.75,2.58s-2.63,3.96-2.63,6.68c0,2.39.81,4.51,2.44,6.38,1.64,1.84,3.91,2.79,6.86,2.79,2.6,0,4.77-.88,6.52-2.63.71-.74,1.27-1.52,1.7-2.4h18.56c0,3.27,0,6.56-.05,9.83,0,.64-.12,1.34-.32,1.93-3.41,9.7-6.86,19.34-10.27,29.04-.3.85-.64,1.11-1.52,1.11-2.97-.05-5.96,0-8.94.02-.97,0-1.38.39-1.38,1.27.02.88.46,1.27,1.52,1.27,2.83-.02,5.69-.07,8.52-.09,12.9-.07,25.82-.12,38.71-.16,1.2-.02,1.73-.44,1.7-1.31,0-.83-.48-1.2-1.66-1.2-2.44,0-4.91-.02-7.35.05-.69,0-1.04-.21-1.31-.88-4.08-9.67-8.2-19.32-12.3-28.99-.12-.3-.21-.64-.21-.97,0-3.62,0-7.28.02-10.92h28.92v64.3h7.48s0-71.78,0-71.78H28.95ZM23.08,116.76c-.81.88-1.7,1.31-2.76,1.31s-2.05-.44-2.83-1.34c-.78-.9-1.17-1.98-1.17-3.25,0-1.15.39-2.16,1.2-2.99.78-.83,1.73-1.27,2.81-1.27s1.96.46,2.76,1.34c.78.9,1.17,1.93,1.17,3.13s-.39,2.21-1.17,3.06ZM60.41,159.54h-19.55c2.92-8.24,5.85-16.51,8.77-24.76.07,0,.16,0,.25-.02,3.48,8.2,6.95,16.42,10.52,24.78Z" class="cls-2"/><path d="M110.45,33.53c-1.73-1.75-3.87-2.63-6.43-2.63-2.74,0-5,.85-6.75,2.58-1.77,1.73-2.65,3.96-2.65,6.68,0,2.39.83,4.51,2.46,6.38.83.94,1.84,1.66,3.02,2.1v133.5h7.48V48.64c1.06-.44,2-1.08,2.86-1.96,1.75-1.75,2.6-3.94,2.6-6.61s-.85-4.77-2.6-6.54ZM106.65,43.22c-.78.88-1.7,1.31-2.74,1.31-1.11,0-2.05-.44-2.83-1.34-.78-.9-1.17-1.98-1.17-3.25,0-1.17.39-2.16,1.17-2.99.78-.85,1.73-1.27,2.83-1.27,1.04,0,1.96.46,2.74,1.34.81.9,1.2,1.93,1.2,3.13s-.39,2.19-1.2,3.06Z" class="cls-2"/><path d="M131.96,16.19c0-2.6-.88-4.79-2.6-6.54-1.75-1.77-3.89-2.65-6.45-2.65-2.74,0-5,.88-6.75,2.6s-2.63,3.94-2.63,6.66c0,2.42.81,4.54,2.44,6.38.88,1.01,1.96,1.73,3.22,2.19h-.21v157.31h7.48V24.82h-.25c1.17-.41,2.21-1.11,3.13-2.03,1.73-1.75,2.6-3.96,2.6-6.61ZM125.56,19.34c-.81.88-1.73,1.29-2.76,1.29-1.11,0-2.05-.44-2.83-1.34-.78-.88-1.17-1.96-1.17-3.22,0-1.17.39-2.16,1.17-3.02.81-.83,1.73-1.24,2.83-1.24,1.04,0,1.96.44,2.76,1.34.78.9,1.17,1.93,1.17,3.11s-.39,2.21-1.17,3.09Z" class="cls-2"/><path d="M148.35,55.04c-1.73-1.75-3.89-2.65-6.45-2.65-2.74,0-5,.88-6.75,2.6-1.75,1.73-2.63,3.94-2.63,6.68,0,2.39.81,4.51,2.44,6.38.83.94,1.84,1.64,3.02,2.1v111.99h7.48v-111.99c1.06-.44,2.03-1.11,2.88-1.96,1.73-1.75,2.6-3.96,2.6-6.61s-.88-4.79-2.6-6.54ZM144.55,64.73c-.78.88-1.7,1.31-2.76,1.31s-2.05-.46-2.83-1.34c-.78-.9-1.17-1.98-1.17-3.25,0-1.17.39-2.16,1.2-2.99.78-.85,1.73-1.27,2.81-1.27s1.98.44,2.76,1.34c.78.9,1.17,1.93,1.17,3.13s-.39,2.19-1.17,3.06Z" class="cls-2"/></g><g><rect width="7.41" height="26.68" x="155.86" y="266.32" class="cls-2"/><rect width="7.41" height="26.68" x="81.08" y="266.32" class="cls-2"/><rect width="7.41" height="26.68" x="99.76" y="266.32" class="cls-2"/><rect width="7.41" height="26.68" x="118.47" y="266.32" class="cls-2"/><rect width="7.41" height="26.68" x="137.29" y="266.32" class="cls-2"/></g><polygon points="81.08 248.84 81.08 198.01 115.23 198.01 115.23 206.67 90.96 206.67 90.96 219.78 111.15 219.78 111.15 227.8 90.96 227.8 90.96 248.84 81.08 248.84" class="cls-1"/><path d="M122.18,248.85v-50.83h22.48c2.34,0,4.5.49,6.48,1.47,1.98.98,3.69,2.27,5.12,3.87,1.43,1.6,2.55,3.41,3.37,5.44.81,2.03,1.22,4.07,1.22,6.12,0,3.29-.82,6.29-2.47,8.99-1.65,2.7-3.88,4.64-6.69,5.84l11.6,19.12h-11.1l-10.38-17.04h-9.74v17.04h-9.88ZM132.06,223.14h12.39c.91,0,1.75-.21,2.54-.64.79-.43,1.47-1.01,2.04-1.75.57-.74,1.03-1.61,1.36-2.61.33-1,.5-2.08.5-3.22s-.19-2.29-.57-3.29c-.38-1-.9-1.87-1.54-2.61-.64-.74-1.39-1.31-2.22-1.72-.84-.41-1.68-.61-2.54-.61h-11.96v16.47Z" class="cls-1"/><polygon points="205.09 240.18 205.09 248.85 169.79 248.85 169.79 198.01 204.44 198.01 204.44 206.67 179.67 206.67 179.67 218.92 201.08 218.92 201.08 226.94 179.67 226.94 179.67 240.18 205.09 240.18" class="cls-1"/><polygon points="248.12 240.18 248.12 248.85 212.82 248.85 212.82 198.01 247.47 198.01 247.47 206.67 222.7 206.67 222.7 218.92 244.11 218.92 244.11 226.94 222.7 226.94 222.7 240.18 248.12 240.18" class="cls-1"/><polygon points="273.03 248.84 273.03 198.01 282.91 198.01 282.91 240.18 308.83 240.18 308.83 248.84 273.03 248.84" class="cls-1"/><path d="M329.31,198.01h8.74l19.33,50.83h-10.17l-4.72-12.67h-17.76l-4.65,12.67h-10.17l19.4-50.83ZM340.69,229.23l-7.02-19.98-7.3,19.98h14.32Z" class="cls-1"/><polygon points="371.12 198.15 380.21 198.15 385.94 214.98 391.67 198.15 400.83 198.15 392.17 221.28 398.61 237.53 413.01 198.01 423.75 198.01 403.05 248.84 394.75 248.84 385.94 227.51 377.14 248.84 368.83 248.84 348.28 198.01 358.88 198.01 373.34 237.53 379.64 221.28 371.12 198.15" class="cls-1"/><path d="M436.2,248.84v-50.83h21.05c2.19,0,4.21.47,6.05,1.4,1.84.93,3.42,2.15,4.76,3.65,1.34,1.5,2.39,3.21,3.15,5.12.76,1.91,1.15,3.84,1.15,5.8,0,2.1-.36,4.12-1.07,6.05s-1.72,3.64-3.01,5.12c-1.29,1.48-2.83,2.67-4.62,3.58-1.79.91-3.78,1.36-5.98,1.36h-16.47v18.76h-5.01ZM441.21,225.65h16.25c1.48,0,2.83-.32,4.05-.97,1.22-.64,2.26-1.5,3.12-2.58.86-1.07,1.53-2.32,2-3.72.48-1.41.71-2.88.71-4.4s-.27-3.07-.82-4.47c-.55-1.41-1.29-2.64-2.22-3.69-.93-1.05-2.03-1.87-3.29-2.47-1.26-.6-2.59-.9-3.97-.9h-15.82v23.2Z" class="cls-2"/><path d="M477.15,248.84v-50.83h21.48c2.19,0,4.21.47,6.05,1.4,1.84.93,3.42,2.15,4.76,3.65,1.34,1.5,2.37,3.21,3.11,5.12.74,1.91,1.11,3.84,1.11,5.8s-.27,3.64-.82,5.33c-.55,1.7-1.31,3.22-2.29,4.58-.98,1.36-2.16,2.51-3.54,3.44-1.39.93-2.93,1.56-4.65,1.9l12.46,19.62h-5.66l-11.96-18.76h-15.04v18.76h-5.01ZM482.17,225.65h16.61c1.48,0,2.83-.32,4.05-.97,1.22-.64,2.25-1.52,3.11-2.61.86-1.1,1.53-2.34,2.01-3.72.48-1.38.72-2.84.72-4.37s-.28-2.99-.82-4.4c-.55-1.41-1.29-2.64-2.22-3.69-.93-1.05-2.03-1.88-3.29-2.51-1.26-.62-2.59-.93-3.97-.93h-16.18v23.2Z" class="cls-3"/><path d="M540.81,249.2c-3.53,0-6.77-.73-9.7-2.18-2.94-1.46-5.45-3.39-7.55-5.8-2.1-2.41-3.72-5.17-4.87-8.27-1.15-3.1-1.72-6.28-1.72-9.52s.61-6.63,1.83-9.74c1.22-3.1,2.9-5.85,5.05-8.23,2.15-2.39,4.68-4.28,7.59-5.69,2.91-1.41,6.06-2.11,9.45-2.11s6.77.75,9.7,2.25c2.94,1.5,5.44,3.47,7.52,5.91,2.08,2.43,3.69,5.19,4.83,8.27,1.15,3.08,1.72,6.22,1.72,9.41,0,3.39-.61,6.64-1.83,9.74-1.22,3.1-2.89,5.83-5.01,8.2-2.12,2.36-4.64,4.25-7.55,5.66s-6.06,2.11-9.45,2.11M521.98,223.43c0,2.77.45,5.43,1.36,7.98.91,2.55,2.19,4.82,3.87,6.8,1.67,1.98,3.65,3.56,5.94,4.72,2.29,1.17,4.84,1.75,7.66,1.75s5.46-.62,7.8-1.86c2.34-1.24,4.32-2.86,5.94-4.87,1.62-2,2.88-4.27,3.76-6.8.88-2.53,1.32-5.11,1.32-7.73,0-2.77-.47-5.43-1.4-7.98-.93-2.55-2.23-4.81-3.9-6.77-1.67-1.96-3.65-3.52-5.94-4.69-2.29-1.17-4.82-1.75-7.59-1.75s-5.47.61-7.8,1.83c-2.34,1.22-4.32,2.83-5.94,4.83-1.62,2-2.88,4.27-3.76,6.8-.88,2.53-1.32,5.11-1.32,7.73" class="cls-3"/><path d="M564.08,242.47c1.05.72,2.4,1.34,4.05,1.86,1.65.53,3.5.79,5.55.79,2.58,0,4.64-.46,6.19-1.4s2.73-2.3,3.54-4.12c.81-1.81,1.34-4.05,1.58-6.7.24-2.65.36-5.67.36-9.06v-25.85h5.01v25.85c0,3.87-.18,7.39-.54,10.56-.36,3.18-1.11,5.88-2.26,8.13-1.15,2.25-2.82,3.99-5.01,5.23-2.2,1.24-5.16,1.86-8.88,1.86-4.3,0-7.97-1.05-11.03-3.15l1.43-4.01Z" class="cls-3"/><polygon points="633.03 244.41 633.03 248.84 598.88 248.84 598.88 198.01 632.39 198.01 632.39 202.45 603.89 202.45 603.89 220.78 628.74 220.78 628.74 225 603.89 225 603.89 244.41 633.03 244.41" class="cls-3"/><path d="M634.46,223.07c0-3.05.54-6.1,1.61-9.13,1.07-3.03,2.64-5.74,4.69-8.13,2.05-2.39,4.58-4.33,7.59-5.83,3.01-1.5,6.42-2.26,10.24-2.26,4.53,0,8.41,1.03,11.64,3.08,3.22,2.05,5.6,4.72,7.12,8.02l-3.94,2.43c-.81-1.67-1.8-3.08-2.97-4.23-1.17-1.15-2.42-2.08-3.76-2.79-1.34-.71-2.72-1.23-4.15-1.54-1.43-.31-2.84-.47-4.22-.47-3.06,0-5.75.62-8.09,1.86-2.34,1.24-4.31,2.86-5.91,4.87-1.6,2-2.81,4.26-3.62,6.77-.81,2.51-1.22,5.05-1.22,7.63,0,2.82.49,5.51,1.47,8.09.98,2.58,2.31,4.86,4.01,6.84,1.69,1.98,3.7,3.56,6.01,4.72,2.32,1.17,4.83,1.75,7.55,1.75,1.43,0,2.9-.18,4.4-.54,1.5-.36,2.96-.93,4.37-1.72,1.41-.79,2.71-1.77,3.9-2.94,1.19-1.17,2.19-2.59,3.01-4.26l4.15,2.15c-.81,1.91-1.96,3.59-3.44,5.05-1.48,1.46-3.13,2.69-4.94,3.69-1.81,1-3.74,1.77-5.76,2.29-2.03.52-4.02.79-5.98.79-3.49,0-6.68-.76-9.59-2.29-2.91-1.53-5.42-3.52-7.52-5.98-2.1-2.46-3.74-5.25-4.9-8.38-1.17-3.13-1.75-6.31-1.75-9.56" class="cls-3"/><polygon points="718.94 202.45 700.83 202.45 700.83 248.85 695.82 248.85 695.82 202.45 677.7 202.45 677.7 198.01 718.94 198.01 718.94 202.45" class="cls-3"/></svg>