<svg xmlns="http://www.w3.org/2000/svg" xmlns:svg="http://www.w3.org/2000/svg" id="Layer_1" width="2160" height="720" x="0" y="0" enable-background="new 0 0 2160 720" version="1.1" viewBox="0 0 2160 720" xml:space="preserve"><metadata id="metadata131"/><text style="font-size:290.36898804px;line-height:0%;font-family:Rockwell-ExtraBold;fill:#fff;fill-opacity:0;stroke:#000;stroke-width:4.99992037;stroke-miterlimit:10" id="text61" x="1564.356" y="1159.445" stroke-miterlimit="10" font-size="290.374" transform="rotate(-19.895482)">$</text><path style="fill-rule:evenodd" id="path5" d="M 1808.9688 67.21875 C 1806.9156 67.200416 1804.2244 68.325875 1800.3438 70.4375 C 1774.064 84.7375 1748.0843 99.63075 1722.0312 114.34375 C 1720.002 115.48875 1717.1587 116.819 1716.6562 118.625 C 1715.7099 122.029 1714.6737 127.883 1716.3438 129.125 C 1722.3927 133.623 1719.746 136.247 1716 140 C 1710.367 145.643 1709.6275 152.44825 1713.0625 159.53125 C 1716.4265 166.46425 1720.9082 172.15 1729.6562 172.25 C 1731.569 172.271 1734.7486 172.21825 1735.1562 173.15625 C 1737.8102 179.28925 1740.4735 185.54725 1741.9375 192.03125 C 1743.0095 196.78425 1743.958 199.901 1749.625 200.625 C 1755.43 201.365 1755.7858 204.4255 1751.7188 208.8125 C 1747.4135 213.4535 1743.033 218.31475 1740.125 223.84375 C 1737.633 228.57975 1734.7105 230.5775 1729.6562 231.6875 C 1718.4515 234.1515 1709.5679 240.36625 1707.1562 252.15625 C 1705.9352 258.12225 1702.9468 261.7495 1698.4688 264.9375 C 1694.9072 267.4725 1691.684 270.7935 1687.75 272.4375 C 1675.774 277.4385 1666.2505 285.20075 1657.0625 294.34375 C 1649.0695 302.30075 1638.7287 307.93675 1629.3438 314.46875 C 1620.6255 320.53575 1620.5994 320.43475 1625.3438 330.46875 C 1627.6681 335.38507 1629.8724 340.36393 1632.125 345.3125 C 1637.3287 347.36166 1640.7068 344.25224 1644.6875 341.53125 C 1659.4735 331.41825 1671.4895 316.9925 1689.9375 312.4375 C 1692.1845 311.8825 1694.5045 309.40575 1695.6875 307.21875 C 1701.6375 296.22175 1712.8005 291.604 1722.3125 285 C 1723.7085 284.03 1726.178 283.99775 1728 284.34375 C 1741.222 286.84675 1749.6305 279.85475 1756.6562 270.09375 C 1758.19 267.96175 1759.2915 263.912 1760.9062 263.75 C 1766.9207 263.147 1773.66 258.4025 1779 264.0625 C 1782.754 268.0385 1785.4113 273.238 1787.7812 278.25 C 1788.4968 279.766 1786.6075 282.5065 1785.9375 284.6875 C 1782.6175 295.5195 1788.267 308.59825 1798.5 312.28125 C 1805.166 314.67825 1812.67 314.398 1817.375 321.625 C 1818.779 323.781 1824.3505 324.5035 1827.6875 323.9375 C 1857.9445 318.7885 1884.5565 306.001 1906.0625 283.875 C 1909.0625 280.789 1909.2997 274.8805 1910.4688 270.1875 C 1911.3755 266.5525 1910.949 262.41825 1912.5 259.15625 C 1919.384 244.68525 1913.605 230.692 1898.375 225.25 C 1896.07 224.427 1893.715 222.13125 1892.625 219.90625 C 1890.167 214.88325 1888.6045 209.429 1886.4375 204.25 C 1884.1124 198.6936 1880.6381 195.99988 1874.9688 200.46875 C 1874.2948 200.4833 1873.6146 200.48647 1872.9375 200.5 C 1870.0327 205.05334 1867.1255 209.60192 1864.2188 214.15625 L 1864.2812 214.21875 C 1862.2503 214.09538 1860.2211 213.96711 1858.1875 213.84375 C 1857.5628 212.47688 1856.9382 211.08562 1856.3125 209.71875 C 1847.4024 196.81011 1838.3953 183.95656 1829.75 170.875 C 1828.744 169.354 1828.9227 165.34925 1830.0938 164.40625 C 1835.0331 160.41825 1840.203 156.27075 1846 153.96875 C 1849.318 152.65175 1851.7497 152.96975 1851.8438 148.34375 C 1851.9126 144.94775 1855.6427 140.80175 1854.5938 138.34375 C 1851.6701 131.51075 1847.8203 124.73875 1842.9062 119.21875 C 1839.789 115.71475 1838.7997 114.2545 1841.9062 110.4375 C 1848.22 102.6805 1845.9555 94.607 1841.3125 87 C 1836.8865 79.748 1830.5028 77.6325 1822.2188 79.9375 C 1820.575 80.3945 1816.9185 78.8375 1816.4375 77.4375 C 1814.0413 70.45875 1812.3895 67.249307 1808.9688 67.21875 z M 1872.9375 200.5 C 1872.9577 200.46834 1872.9798 200.43791 1873 200.40625 L 1872.875 200.5 C 1872.8958 200.49958 1872.9167 200.50042 1872.9375 200.5 z M 1632.125 345.3125 C 1632.1154 345.30873 1632.103 345.31631 1632.0938 345.3125 L 1632.1875 345.46875 C 1632.1643 345.41774 1632.1482 345.36352 1632.125 345.3125 z M 1837.9062 92 C 1838.4506 93.646 1839.0098 95.3095 1838.7188 94.4375 C 1839.7215 100.6605 1838.7365 103.56375 1835.7188 105.84375 C 1830.7568 109.59475 1827.9373 115.9035 1821.4062 117.8125 C 1819.7276 118.3025 1818.1335 119.01325 1816.4375 119.40625 C 1815.8625 119.53925 1814.6985 119.157 1814.5625 118.75 C 1814.2505 117.818 1813.9485 116.20625 1814.4375 115.78125 C 1818.1225 112.57925 1819.6207 108.18275 1821.5938 103.96875 C 1824.0814 98.65175 1827.1553 93.822 1834.0938 93.625 C 1835.3853 93.588 1836.6272 92.561 1837.9062 92 z M 1845.8438 127.25 C 1845.9204 127.595 1845.9725 127.94175 1846.0625 128.34375 C 1845.0905 130.53275 1844.7143 133.479 1843.0312 134.875 C 1838.0883 138.973 1832.6277 142.45 1827.3438 146.125 C 1826.9945 146.367 1825.9597 146.2945 1825.8438 146.0625 C 1825.5404 145.4495 1825.2223 144.315 1825.5312 144 C 1831.1505 138.222 1835.7155 131.27575 1843.4375 127.84375 C 1844.1775 127.51475 1845.0447 127.441 1845.8438 127.25 z M 1741.5938 133.78125 C 1742.0102 133.86574 1742.7797 134.68488 1743.4062 135.125 C 1742.4087 137.052 1741.5968 138.60125 1740.7812 140.15625 C 1737.0756 147.20725 1730.0146 149.1155 1723.2812 151.4375 C 1722.4947 151.7085 1720.8615 151.09725 1720.4375 150.40625 C 1720.0305 149.73825 1720.3023 148.09375 1720.9062 147.46875 C 1724.2167 144.04275 1727.2987 140.33675 1731.9688 138.46875 C 1735.2233 137.16675 1738.2385 135.2785 1741.4375 133.8125 C 1741.482 133.79212 1741.5341 133.76918 1741.5938 133.78125 z M 1889.0625 221.65625 C 1889.1395 222.00125 1889.2235 222.347 1889.3125 222.75 C 1888.3405 224.939 1887.933 227.88525 1886.25 229.28125 C 1881.307 233.37925 1875.8777 236.8875 1870.5938 240.5625 C 1870.2447 240.8045 1869.1785 240.70075 1869.0625 240.46875 C 1868.7595 239.85575 1868.441 238.72125 1868.75 238.40625 C 1874.369 232.62825 1878.9655 225.682 1886.6875 222.25 C 1887.4275 221.921 1888.2635 221.84725 1889.0625 221.65625 z M 1910.4062 241.4375 C 1910.9503 243.0825 1911.5098 244.71475 1911.2188 243.84375 C 1912.2217 250.06675 1911.2367 252.97 1908.2188 255.25 C 1903.2568 259.001 1900.4373 265.341 1893.9062 267.25 C 1892.2272 267.74 1890.6335 268.45075 1888.9375 268.84375 C 1888.3625 268.97675 1887.1985 268.56325 1887.0625 268.15625 C 1886.7505 267.22425 1886.4485 265.6125 1886.9375 265.1875 C 1890.6225 261.9855 1892.1207 257.589 1894.0938 253.375 C 1896.5818 248.058 1899.6557 243.22825 1906.5938 243.03125 C 1907.8857 242.99425 1909.1272 241.9985 1910.4062 241.4375 z M 1750.5 244.4375 C 1754.9378 244.53014 1753.5981 249.90969 1754.875 252.125 C 1758.723 258.79 1752.5333 266.05475 1750.1562 271.09375 C 1745.8959 271.09375 1745.3115 269.29225 1743.0625 267.28125 C 1742.0775 266.39925 1743.0426 263.35875 1743.2188 258.34375 C 1743.5177 257.76075 1745.136 254.8425 1746.5 251.8125 C 1747.585 249.3955 1744.6413 245.104 1749.5312 244.5 C 1749.8815 244.45694 1750.2041 244.43132 1750.5 244.4375 z M 1705 283.3125 C 1705.778 283.1665 1706.7205 283.972 1707.6875 284.375 C 1707.2625 285.087 1706.9865 285.8815 1706.4375 286.4375 C 1696.2325 296.7435 1685.0987 305.93125 1672.4688 313.15625 C 1671.9751 313.43943 1671.0129 314.0506 1670.4062 314.40625 C 1669.8291 315.34553 1667.4764 318.0912 1666.6562 317.5 C 1664.3209 315.816 1661.5008 313.11725 1665.0938 310.15625 C 1668.8391 307.07125 1673.1925 304.7605 1677.0625 301.8125 C 1684.1765 296.3925 1691.0238 290.6185 1698.2188 285.3125 C 1700.0077 283.9925 1702.679 283.7445 1705 283.3125 z M 1824.6875 291.59375 C 1825.0425 291.43075 1825.908 292.40325 1826.625 292.90625 C 1825.627 294.83325 1824.8463 296.41375 1824.0312 297.96875 C 1820.3255 305.01975 1813.233 306.89675 1806.5 309.21875 C 1805.713 309.48975 1804.0805 308.90975 1803.6562 308.21875 C 1803.2495 307.55075 1803.5524 305.875 1804.1562 305.25 C 1807.4664 301.824 1810.5487 298.14925 1815.2188 296.28125 C 1818.4736 294.97925 1821.4885 293.05975 1824.6875 291.59375 z"/><path style="fill-rule:evenodd" id="path7" d="M 2011.7188 562.34375 C 2009.7628 562.34309 2007.832 562.3785 2005.9062 562.40625 C 1958.1874 563.10125 1910.4405 563.332 1862.7812 565.5 C 1852.2485 565.979 1842.0168 573.56625 1831.7188 578.03125 C 1830.6536 578.49425 1829.5966 579.97225 1829.3438 581.15625 C 1827.1456 591.49525 1825.06 601.88825 1823.125 612.28125 C 1822.903 613.47925 1824.0025 614.84225 1824.0625 616.15625 C 1824.4415 624.53125 1825.2317 632.95525 1824.7188 641.28125 C 1824.5016 644.84625 1821.61 648.31625 1819.625 651.65625 C 1818.258 653.95725 1816.3698 655.96075 1814.7188 658.09375 C 1817.3585 659.97075 1819.7545 662.7535 1822.6875 663.5625 C 1830.4485 665.7025 1838.398 667.42625 1846.375 668.53125 C 1905.587 676.75125 1965.0625 677.07425 2024.5625 673.15625 C 2039.8975 672.15025 2055.0898 668.6015 2070.2188 665.5625 C 2073.3056 664.9415 2075.7995 661.344 2078.5625 659.125 C 2076.3045 656.856 2074.0413 654.5835 2071.7812 652.3125 L 2071.875 652.21875 C 2067.254 654.75575 2062.9127 658.23875 2057.9688 659.59375 C 2050.5766 661.62075 2042.777 662.29925 2035.125 663.28125 C 2027.444 664.26525 2025.7933 662.31025 2026.0312 654.53125 C 2026.3235 645.06425 2026.1764 635.56875 2026.1562 626.09375 C 2026.1544 625.11775 2026.0344 623.764 2025.4062 623.25 C 2021.2785 619.867 2023.27 619.84975 2027 619.46875 C 2039.336 618.20475 2051.6802 616.8285 2063.9062 614.8125 C 2066.2954 614.4155 2070.3268 609.79725 2069.9688 609.15625 C 2064.7537 599.84925 2063.3227 589.3925 2060.3438 579.4375 C 2060.0028 578.2975 2058.7288 577.10775 2057.5938 576.59375 C 2048.1055 572.28675 2038.8465 567.191 2028.9375 564.25 C 2023.512 562.64125 2017.586 562.34572 2011.7188 562.34375 z M 2027.7812 569.1875 C 2028.5086 569.157 2029.012 569.172 2029.4375 569.375 C 2030.5205 569.894 2032.7492 570.4795 2031.5312 572.1875 C 2030.7063 573.3445 2031.342 576.726 2028.5 575.5 C 2024.09 573.599 2019.5513 574.2075 2015.0312 573.9375 C 2013.6662 573.8585 2012.3554 572.91975 2011.0312 572.34375 C 2010.8064 572.24475 2010.475 571.8455 2010.5 571.8125 C 2010.748 571.4685 2011.0817 570.88125 2011.3438 570.90625 C 2016.4606 571.40025 2021.3875 570.24725 2024.8125 569.28125 C 2026.0985 569.28125 2027.0539 569.218 2027.7812 569.1875 z M 2025.8125 580.25 C 2028.7372 580.19895 2031.6643 580.28125 2034.5938 580.28125 C 2037.9756 580.28125 2041.368 580.27825 2044.75 580.28125 C 2047.958 580.28425 2050.4888 581.769 2052.4688 584.125 C 2052.7577 584.471 2052.1653 586.30275 2051.6562 586.46875 C 2047.4754 587.82975 2032.5705 589.147 2028.1562 588 C 2024.4832 587.044 2021.0897 585.01125 2017.5938 583.40625 C 2017.2466 583.24725 2017.025 582.78775 2016.75 582.46875 C 2017.188 582.26275 2017.6095 582.029 2018.0625 581.875 C 2019.6605 581.332 2021.246 580.43975 2022.875 580.34375 C 2023.8475 580.2885 2024.8376 580.26702 2025.8125 580.25 z M 1864.5312 644.59375 C 1865.2763 644.54658 1866.1022 644.57513 1867 644.6875 C 1869.1455 644.957 1871.3145 645.15106 1873.4688 645.375 C 1875.6227 645.5955 1877.7625 645.85275 1879.875 646.28125 C 1883.5174 647.021 1886.6018 652.09134 1887.0938 656.53125 C 1887.1385 656.93452 1887.1559 657.32988 1887.1562 657.71875 C 1887.1578 658.11835 1887.1422 658.49839 1887.0938 658.875 C 1887.0466 659.24198 1886.9727 659.56865 1886.875 659.90625 C 1886.7279 660.42384 1886.5241 660.88538 1886.25 661.3125 C 1886.1603 661.45225 1886.0728 661.59056 1885.9688 661.71875 C 1885.3733 662.45025 1884.3729 662.858 1883.4062 663.125 C 1882.4409 663.39775 1881.5122 663.54125 1881.0312 663.71875 C 1874.7442 662.95675 1869.7888 662.37775 1864.8438 661.71875 C 1863.7421 661.57212 1862.6155 661.41969 1861.5938 661.1875 C 1861.5836 661.1852 1861.5726 661.18982 1861.5625 661.1875 C 1861.3152 661.13081 1861.0802 661.06838 1860.8438 661 C 1860.8342 660.99724 1860.822 661.00278 1860.8125 661 C 1860.3213 660.85656 1859.8655 660.68034 1859.4375 660.46875 C 1859.2317 660.36702 1859.0312 660.24644 1858.8438 660.125 C 1858.8366 660.12038 1858.8196 660.12965 1858.8125 660.125 C 1858.4303 659.87466 1858.1026 659.56848 1857.8125 659.21875 C 1857.6606 659.03556 1857.5286 658.84006 1857.4062 658.625 C 1856.8129 657.58226 1856.5725 656.16563 1856.875 654.15625 C 1856.9716 653.51532 1857.0897 652.88294 1857.2188 652.28125 C 1857.2302 652.22777 1857.2382 652.17813 1857.25 652.125 C 1857.3474 651.68473 1857.4423 651.2576 1857.5625 650.84375 C 1857.6273 650.62107 1857.7089 650.40166 1857.7812 650.1875 C 1857.8056 650.1154 1857.8185 650.03983 1857.8438 649.96875 C 1857.8734 649.88543 1857.9066 649.80065 1857.9375 649.71875 C 1858.1193 649.2366 1858.3319 648.77182 1858.5625 648.34375 C 1858.5847 648.30298 1858.6024 648.25898 1858.625 648.21875 C 1858.7539 647.98754 1858.8857 647.77547 1859.0312 647.5625 C 1859.1983 647.31821 1859.403 647.09347 1859.5938 646.875 C 1859.7352 646.71343 1859.8758 646.55273 1860.0312 646.40625 C 1860.0476 646.39077 1860.0772 646.3903 1860.0938 646.375 C 1860.1597 646.31413 1860.2128 646.2456 1860.2812 646.1875 C 1860.4683 646.02854 1860.6679 645.88742 1860.875 645.75 C 1861.1182 645.5886 1861.3835 645.44239 1861.6562 645.3125 C 1861.9223 645.18581 1862.204 645.06365 1862.5 644.96875 C 1862.8108 644.86912 1863.1229 644.78132 1863.4688 644.71875 C 1863.509 644.71151 1863.553 644.69422 1863.5938 644.6875 C 1863.8926 644.63828 1864.2053 644.61442 1864.5312 644.59375 z"/><path style="fill-rule:evenodd" id="path9" d="m 1411.359,677.074 c -16.071,0.457 -32.147,1.283 -48.217,1.172 -5.36,-0.039 -363.199,-2.203 -368.548,-3.541 4.608,-2.121 361.627,-4.75 366.355,-6.551 3.052,-1.162 6.414,-1.516 9.635,-2.23 -2.269,-2.713 -4.324,-5.641 -6.843,-8.09 -7.224,-7.025 -14.765,-13.723 -21.902,-20.83 -2.733,-2.725 -4.71,-6.205 -7.035,-9.342 3.916,1.029 8.045,1.576 11.689,3.207 4.576,2.045 8.771,4.955 13.1,7.541 4.021,2.404 6.835,1.715 8.76,-2.811 4.69,-11.031 9.58,-21.984 14.333,-32.992 0.635,-1.471 1.554,-4.336 1.328,-4.443 -7.498,-3.592 -0.56,-13.268 -7.259,-17.119 -0.66,-0.381 -0.767,-1.725 -1.131,-2.619 1.215,-0.021 2.653,-0.486 3.607,0.002 7.774,3.975 15.731,7.699 23.083,12.363 5.732,3.635 10.143,3.146 13.939,-2.035 3.956,-5.4 7.8,-10.934 11.128,-16.734 8.689,-15.158 16.978,-30.549 25.627,-45.732 3.309,-5.811 4.848,-10.65 -3.562,-13.115 -0.807,-0.236 -1.395,-1.221 -2.083,-1.855 1.046,-0.492 2.345,-1.656 3.101,-1.375 7.405,2.779 8.141,-1.139 9.22,-7.318 1.889,-10.811 5.588,-21.293 7.929,-32.045 1.345,-6.188 1.302,-12.668 2.315,-18.947 0.389,-2.408 1.498,-5.994 3.145,-6.572 1.894,-0.66 5.045,0.988 7.104,2.416 2.438,1.695 4.969,3.883 6.282,6.455 5.617,11.012 15.203,18.369 24.066,26.23 5.95,5.277 13.371,8.854 19.854,13.58 8.838,6.441 17.147,13.646 26.231,19.701 3.315,2.207 8.201,2.037 12.36,3.006 1.138,0.264 2.23,0.723 3.344,1.094 -0.776,1.027 -1.332,2.525 -2.364,3.004 -4.854,2.252 -9.703,4.695 -14.812,6.184 -6.86,1.994 -9.707,6.809 -8.243,12.914 2.871,11.988 6.817,23.723 10.462,35.514 0.778,2.521 2.607,4.75 3.196,7.291 2.102,9.059 3.604,18.26 5.842,27.285 3.454,13.93 10.512,17.215 24.382,13.086 6.787,-2.021 14.07,-2.375 21.132,-3.484 l -0.074,-0.086 c -1.285,7.436 1.011,11.305 8.454,12.379 4.577,0.66 9.367,-0.299 14.029,0 1.485,0.098 2.857,1.916 4.282,2.945 -1.38,1.172 -2.741,3.311 -4.14,3.336 -4.325,0.074 -8.761,-1.385 -12.972,-0.844 -3.473,0.447 -8.764,2.268 -9.474,4.619 -0.811,2.684 1.662,7.994 4.305,9.734 5.069,3.344 11.077,5.93 17.036,7.111 13.075,2.588 26.371,4.033 39.547,6.139 1.77,0.281 3.362,1.668 5.036,2.543 -1.758,1.035 -3.459,2.834 -5.287,2.973 -8.356,0.641 -16.746,1.057 -25.126,1.115 -29.536,0.195 -59.075,0.193 -88.611,0.34 -1.566,0.008 -3.131,0.68 -4.699,1.045 1.507,0.93 2.965,2.564 4.527,2.674 9.056,0.633 18.133,1.129 27.208,1.246 13.416,0.176 26.843,0.113 40.258,-0.072 15.43,-0.213 30.856,-0.666 46.284,-1.018 1.674,-0.039 3.393,-0.354 4.999,-0.055 1.146,0.215 2.139,1.248 3.198,1.92 -1.035,0.621 -2.021,1.664 -3.111,1.793 -7.331,0.865 -14.68,2.1 -22.032,2.174 -31.895,0.314 -63.794,0.303 -95.691,0.312 -2.997,0.002 -6.505,0.16 -8.85,-1.271 -2.284,-1.391 -4.925,-4.852 -4.745,-7.197 0.975,-12.734 2.747,-25.414 9.541,-36.703 2.115,-3.512 2.421,-6.096 -1.465,-9.408 -2.891,-2.465 -4.838,-7.148 -5.362,-11.09 -3.536,-26.645 -6.438,-53.373 -9.947,-80.025 -0.518,-3.939 -2.619,-7.969 -4.922,-11.314 -5.498,-7.99 -11.436,-15.689 -17.421,-23.332 -4.781,-6.104 -6.217,-5.973 -9.662,0.777 -1.826,3.576 -3.453,7.359 -4.46,11.234 -4.053,15.613 -11.954,29.029 -21.894,41.617 -15.623,19.785 -30.63,40.059 -46.034,60.018 -6.932,8.98 -7.064,8.832 -17.035,3.625 -1.333,-0.695 -2.933,-0.875 -4.41,-1.293 0.156,1.561 0.031,3.217 0.518,4.668 1.831,5.451 6.621,4.92 10.938,5.012 9.929,0.213 19.068,1.477 26.699,9.346 8.099,8.354 7.061,19.236 9.747,29.053 0.305,1.109 -3.804,4.623 -6.229,5.076 -11.192,2.086 -22.516,3.473 -33.791,5.135 -3.277,0.484 -6.541,1.047 -9.811,1.574 l 0.099,-0.09 z" clip-rule="evenodd"/><path style="fill-rule:evenodd" id="path11" d="M 1543.6562 290.9375 C 1536.3093 292.7825 1528.6647 293.88275 1521.7188 296.71875 C 1516.4647 298.86675 1508.6813 303.00175 1513.0312 309.59375 C 1515.3113 313.04975 1524.2475 312.158 1530.1875 313.125 C 1530.7295 313.213 1531.3498 312.53925 1531.9688 312.28125 C 1541.0608 308.49225 1545.3805 310.363 1548.4375 319.875 C 1550.9815 327.793 1552.0452 336.38925 1555.7812 343.65625 C 1560.4812 352.79425 1561.0822 362.24625 1561.5312 371.90625 C 1561.9863 381.60725 1562.0612 391.3515 1562.0312 401.0625 C 1562.0142 406.6175 1564.6415 409.08625 1569.9375 409.15625 C 1580.7425 409.29825 1598.3808 394.4845 1598.9688 384.0625 C 1599.1607 380.6265 1598.6707 379.67 1602.8438 380.125 C 1616.1487 381.569 1624.932 374.5035 1631.25 363.5625 L 1631.3438 363.65625 C 1630.7061 362.25498 1630.1036 360.83881 1629.4688 359.4375 C 1628.0931 360.6808 1626.7174 361.94328 1625.3438 363.1875 C 1622.8667 355.51343 1625.9427 349.91356 1631.9375 345.4375 C 1628.7118 345.00196 1625.4086 343.96442 1622.2812 344.34375 C 1615.7492 345.13575 1611.6798 343.67625 1609.2188 336.78125 C 1606.9748 330.49825 1603.2573 324.64625 1599.5312 319.03125 C 1597.0472 315.28925 1594.3575 313.94625 1593.4375 320.65625 C 1593.2045 322.32625 1589.0267 323.67525 1586.4688 324.65625 C 1585.7707 324.92525 1583.8657 323.56425 1583.3438 322.53125 C 1579.8178 315.58025 1576.9803 308.221 1572.9062 301.625 C 1571.2403 298.925 1567.2405 297.1075 1563.9375 296.0625 C 1557.2725 293.9535 1550.3745 292.641 1543.5625 291 L 1543.6562 290.9375 z M 1631.9375 345.4375 C 1632.0197 345.4486 1632.1054 345.45844 1632.1875 345.46875 L 1632.0938 345.3125 C 1632.0402 345.35195 1631.9906 345.39788 1631.9375 345.4375 z M 1562.7188 321.46875 C 1564.0026 321.51065 1565.5805 322.79056 1567.6875 325.28125 C 1572.1757 330.58769 1576.6372 334.9128 1583.25 334.53125 C 1583.7586 334.5019 1584.2775 334.46199 1584.8125 334.375 C 1585.8825 334.20101 1587.0316 333.89387 1588.2188 333.46875 C 1588.3092 333.43627 1588.4042 333.42391 1588.5 333.40625 C 1588.6066 333.38838 1588.7313 333.37654 1588.8438 333.375 C 1590.4183 333.35347 1592.5307 334.83175 1594.3438 335.46875 C 1593.0318 337.12475 1592.0388 339.32475 1590.3438 340.34375 C 1585.7719 343.09306 1581.7215 347.07597 1576.5625 348.375 C 1576.0935 348.49309 1575.6136 348.58554 1575.125 348.65625 C 1573.179 348.9335 1571.0416 348.83259 1568.6875 348.125 C 1567.5477 347.78262 1566.5272 347.4425 1565.5938 347.09375 C 1565.127 346.91936 1564.6993 346.74476 1564.2812 346.5625 C 1563.4451 346.19801 1562.6845 345.7961 1562.0312 345.375 C 1561.7046 345.16442 1561.4088 344.94976 1561.125 344.71875 C 1560.2736 344.0258 1559.5947 343.23344 1559.0938 342.28125 C 1558.9268 341.96382 1558.7882 341.63586 1558.6562 341.28125 C 1557.8648 339.15379 1557.6805 336.30588 1557.9062 332.3125 C 1558.0753 331.3245 1558.2423 329.32325 1558.7812 327.40625 C 1559.5305 324.734 1560.3049 322.95937 1561.2188 322.09375 C 1561.5234 321.80521 1561.844 321.61941 1562.1875 321.53125 C 1562.3592 321.48717 1562.5353 321.46276 1562.7188 321.46875 z"/><path style="fill-rule:evenodd" id="path13" d="m 1438.618,330.542 c -0.659,-4.555 -1.358,-9.105 -1.958,-13.669 -0.146,-1.129 0.029,-2.303 0.057,-3.455 0.969,0.183 2.308,0.023 2.843,0.604 2.653,2.885 5.496,5.72 7.527,9.028 5.073,8.261 10.173,16.558 14.451,25.238 3.977,8.067 7.075,16.586 10.227,25.032 1.646,4.416 -0.668,7.67 -5.058,7.844 -6.582,0.262 -13.56,0.627 -19.671,-1.283 -3.39,-1.059 -7.196,-6.436 -7.641,-10.236" clip-rule="evenodd"/><path style="fill-rule:evenodd" id="path15" d="m 1455.634,468.998 c -1.465,5.107 -55.19,38.867 -59.626,36.629 -3.22,-1.625 -6.159,-9.193 -6.848,-12.689 -1.227,-6.25 61.46,-52.096 67.587,-53.805 0.98,-0.273 3.371,1.443 3.717,2.637 0.621,2.156 0.188,4.615 0.194,6.949" clip-rule="evenodd"/><path style="fill-rule:evenodd" id="path17" d="m 1411.261,677.16 0.099,-0.086 -0.099,0.086 z" clip-rule="evenodd"/><path style="fill-rule:evenodd" id="path19" d="m 1873.009,200.397 -0.118,0.105 0.118,-0.105 z" clip-rule="evenodd"/><path style="fill-rule:evenodd" id="path21" d="m 2071.888,652.215 -0.107,0.107 0.107,-0.107 z" clip-rule="evenodd"/><path style="fill-rule:evenodd" id="path23" d="m 1464.313,255.049 0.087,0.096 -0.087,-0.096 z" clip-rule="evenodd"/><path style="fill-rule:evenodd" id="path25" d="m 1543.651,290.925 -0.097,0.087 0.097,-0.087 z" clip-rule="evenodd"/><path style="fill:#fff;fill-rule:evenodd" id="path27" d="m 1874.896,200.536 0.083,-0.075 -0.083,0.075 z" clip-rule="evenodd"/><path style="fill:#fff;fill-rule:evenodd" id="path29" d="m 1856.322,209.729 0.099,0.108 -0.099,-0.108 z" clip-rule="evenodd"/><path style="fill:#fff;fill-rule:evenodd" id="path31" d="m 1858.162,213.853 0.093,0.103 -0.093,-0.103 z" clip-rule="evenodd"/><path style="fill:#fff;fill-rule:evenodd" id="path33" d="m 1864.234,214.153 0.06,0.071 -0.06,-0.071 z" clip-rule="evenodd"/><path style="fill:#fff;fill-rule:evenodd" id="path39" d="m 1493.612,232.086 0.101,0.112 -0.101,-0.112 z" clip-rule="evenodd"/><path id="path41" d="M1564.721,410.943c0,0-3.365,11.301-1.447,28.9c1.917,17.598,37.086,60.072,39.545,65.402 c2.46,5.33,24.079,105.891,24.124,108.166c0.043,2.277-11.469,5.557-11.469,5.557s7.097-3.223,7.13-7.01 c0.033-3.789-16.614-92.914-24.983-103.406s-40.173-51.791-40.409-68.979c-0.139-10.004,0.12-23.707,2.291-28.695 C1561.06,407.299,1564.721,410.943,1564.721,410.943z"/><path id="path43" fill-rule="evenodd" d="M1647.16,632.488c0,0,31.461-2.076,36.473,10.271 c5.012,12.346,4.981,24.469,4.981,24.469s5.637,5.24,5.716,7.832c0.078,2.59-4.234,4.357-4.234,4.357l-4.921-0.217 c0,0,3.496-1.932,3.104-4.408c-0.392-2.479-4.255-4.053-5.198-5.787c-0.942-1.736-7.13-12.469-9.161-23.658 C1671.889,634.156,1647.16,632.488,1647.16,632.488z" clip-rule="evenodd"/><path id="path45" d="M1448.917,480.76c0,0-4.99,26.553-6.972,29.498c-1.981,2.947-68.703,57.08-70.002,63.592 c-1.299,6.514,0.841,15.9-0.758,17.143c-1.598,1.244-38.716,30.117-38.716,30.117s8.367,3.893,12.101,0.535 c3.735-3.359,28.7-24.5,29.989-26.967s-2.282-9.363,0.779-17.646c3.062-8.283,67.407-62.023,69.061-65.148 C1446.054,508.758,1448.917,480.76,1448.917,480.76z"/><path id="path47" fill-rule="evenodd" d="M1462.945,240.909l-0.534,12.101c0,0-41.933,19.062-41.854,32.52 c0.08,13.458,13.807,80.75,13.807,80.75l2.424,9.201c0,0-13.259-73.333-8.909-87.96c4.352-14.627,29.077-26.67,36.239-28.037 c7.16-1.366,23.251,0.355,23.251,0.355s-16.958-4.961-19.446-9.616C1465.436,245.566,1462.945,240.909,1462.945,240.909z" clip-rule="evenodd"/><path id="path49" fill-rule="evenodd" d="M1508.385,228.031c0.46-0.183,0.275,9.163,2.44,11.927s28.591,8.888,34.591,11.06 c5.999,2.171,28.401,32.899,28.401,32.899l17.791,25.949c0,0-17.715-17.409-22.562-24.254c-4.852-6.846-19.32-28.687-29.097-31.787 c-9.774-3.1-19.363-4.177-25.741-3.425c-6.378,0.753-18.812,2.218-18.812,2.218s8.669-4.484,10.249-7.553 C1507.225,241.998,1507.925,228.212,1508.385,228.031z" clip-rule="evenodd"/><path id="path51" fill-rule="evenodd" d="M1473.759,384.861c0,0,1.088,13.424-0.698,15.801 c-1.786,2.375-10.896,13.998-11.119,19.041c-0.224,5.041-1.396,16.146-0.684,15.463c0.708-0.686,0.191-7.539,3.795-15.326 c3.604-7.785,10.914-16.354,11.796-21.033C1477.728,394.131,1473.759,384.861,1473.759,384.861z" clip-rule="evenodd"/><path id="path53" fill-rule="evenodd" d="M1622.369,317.526c0,0-6.171-5.764-9.2-3.741 c-3.032,2.022-4.433,7.061-4.433,7.061l0.667,2.688c0,0,2.809-5.869,4.052-7.383S1622.369,317.526,1622.369,317.526z" clip-rule="evenodd"/><path id="path55" fill-rule="evenodd" d="M2058.029,618.957c0,0,8.409-2.404,9.784-2.971 c1.375-0.568,2.795-2.686,3.189-2.84c0.396-0.154,0.736,37.086,0.736,37.086s-1.785-31.145-2.613-31.748 S2058.029,618.957,2058.029,618.957z" clip-rule="evenodd"/><path id="path57" fill-rule="evenodd" d="M1841.974,157.971c0,0,8.969-4.824,10.452-4.084 c1.482,0.739,5.105,15.824,8.942,22.455c3.838,6.633,11.614,18.7,11.803,20.393c0.188,1.693-5.687,8.842-5.687,8.842 s1.872-8,2.105-9.506c0.235-1.504-10.266-11.567-13.338-18.271c-3.072-6.704-4.688-20.202-6.182-20.144 S1841.974,157.971,1841.974,157.971z" clip-rule="evenodd"/><text style="font-size:290.36898804px;line-height:0%;font-family:Rockwell-ExtraBold" id="text63" x="1553.492" y="1151.263" font-size="290.374" transform="rotate(-19.895482)">$</text><g id="g65" transform="matrix(0.69626425,0,0,0.69626425,21.214423,160.46035)"><path id="path67" d="m 71,73.947 h 149.607 l 15.795,41.607 H 226.9 c -5.137,-5.907 -10.874,-11.237 -17.208,-15.988 -6.336,-4.752 -12.585,-8.582 -18.749,-11.494 -6.164,-2.91 -11.987,-4.836 -17.465,-5.779 -4.966,-0.855 -10.061,-1.284 -15.282,-1.284 -8.648,0 -14.79,0.835 -18.428,2.504 -3.64,1.67 -5.929,4.623 -6.87,8.861 -0.943,4.237 -1.413,11.409 -1.413,21.51 v 44.176 h 23.372 c 11.814,0 20.74,-2.633 26.775,-7.897 6.036,-5.266 9.182,-13.333 9.439,-24.207 h 9.246 v 68.704 h -9.246 c -0.771,-8.646 -2.312,-15.003 -4.623,-19.07 -2.312,-4.065 -5.971,-6.807 -10.98,-8.219 -5.008,-1.413 -12.222,-2.119 -21.638,-2.119 h -22.345 v 62.796 c 0,7.448 2.075,12.649 6.228,15.603 4.152,2.953 11.45,4.43 21.896,4.43 h 3.339 v 7.063 H 71.771 v -7.063 c 8.389,-0.257 14.467,-1.112 18.235,-2.568 3.766,-1.455 6.271,-3.917 7.513,-7.384 1.24,-3.467 1.862,-8.752 1.862,-15.859 v -112.237 -6.164 c 0,-8.219 -1.521,-14.126 -4.559,-17.722 -3.04,-3.596 -9.868,-5.394 -20.482,-5.394 -0.6,0 -1.156,0.022 -1.669,0.064 -0.514,0.044 -1.071,0.108 -1.669,0.192 v -7.062 z m 40.709,157.569 v -120.97 c 0,-8.817 -0.279,-15.195 -0.834,-19.134 -0.558,-3.937 -2.119,-6.806 -4.688,-8.604 -2.569,-1.798 -6.85,-2.396 -12.842,-1.798 4.537,1.627 7.362,3.939 8.476,6.935 1.112,2.998 1.669,8.776 1.669,17.336 V 225.48 c 0,5.309 -0.193,9.246 -0.578,11.814 -0.386,2.568 -1.178,4.603 -2.376,6.1 -1.2,1.499 -3.254,3.062 -6.164,4.687 6.334,0.086 10.807,-1.134 13.42,-3.66 2.611,-2.523 3.917,-6.825 3.917,-12.905 z m 78.335,-57.403 v -27.096 c -1.798,3.511 -4.003,6.208 -6.614,8.09 -2.612,1.884 -6.529,3.768 -11.75,5.65 5.137,1.284 9.138,2.934 12.007,4.944 2.868,2.013 4.986,4.817 6.357,8.412 z M 220.607,102.328 208.022,81.01 h -24.014 c 5.307,1.713 10.017,3.618 14.126,5.715 4.109,2.099 7.641,4.217 10.595,6.356 2.953,2.142 6.912,5.224 11.878,9.247 z"/><path id="path69" d="m 287.359,140.725 v 19.776 c 6.591,-7.448 11.642,-12.605 15.153,-15.474 3.509,-2.868 7.747,-4.302 12.713,-4.302 4.28,0 7.898,1.521 10.851,4.559 2.954,3.04 4.431,6.87 4.431,11.493 0,4.795 -1.328,8.797 -3.981,12.007 -2.655,3.211 -5.994,4.816 -10.017,4.816 -1.798,0 -3.768,-0.341 -5.907,-1.027 -2.141,-0.684 -3.939,-1.583 -5.394,-2.697 -0.857,-0.684 -1.756,-1.413 -2.697,-2.183 -0.943,-0.771 -1.778,-1.369 -2.504,-1.798 -0.729,-0.427 -1.521,-0.642 -2.376,-0.642 -1.627,0 -3.232,0.622 -4.815,1.862 -1.585,1.242 -3.403,2.976 -5.458,5.201 v 62.026 c 0,4.453 0.62,7.621 1.862,9.503 1.24,1.884 3.166,3.062 5.778,3.531 2.611,0.472 7.169,0.707 13.677,0.707 v 7.063 h -68.96 v -7.063 h 3.467 c 9.93,0 14.896,-3.937 14.896,-11.814 v -57.66 c 0,-9.844 -6.122,-16.608 -18.364,-20.29 v -4.366 l 41.351,-13.227 h 6.294 z m -25.042,37.883 v 58.43 c 0,2.912 -0.472,5.073 -1.413,6.485 -0.943,1.413 -2.312,2.934 -4.109,4.559 4.88,-0.427 8.389,-1.734 10.53,-3.917 2.139,-2.184 3.21,-5.972 3.21,-11.365 v -54.192 c 0,-7.362 -1.284,-12.713 -3.853,-16.052 -2.569,-3.339 -6.636,-5.008 -12.2,-5.008 -0.429,0 -1.371,0.086 -2.825,0.257 -1.457,0.172 -2.44,0.257 -2.954,0.257 9.076,3.938 13.614,10.786 13.614,20.546 z m 33.646,-18.107 c 2.312,0 4.623,0.771 6.935,2.312 5.307,4.196 9.76,6.292 13.355,6.292 4.451,0 7.705,-2.867 9.76,-8.604 -2.398,1.2 -4.153,1.798 -5.265,1.798 -2.568,0 -5.137,-0.855 -7.705,-2.568 -3.254,-2.653 -5.951,-3.981 -8.09,-3.981 -2.056,0 -5.053,1.584 -8.99,4.751 z"/><path id="path71" d="m 439.663,223.297 5.137,3.981 c -3.853,7.191 -8.434,13.099 -13.741,17.722 -5.309,4.623 -11.152,8.048 -17.529,10.273 -6.379,2.225 -13.035,3.339 -19.969,3.339 -9.418,0 -18.171,-2.27 -26.261,-6.806 -8.091,-4.537 -14.491,-11.086 -19.199,-19.648 -4.709,-8.56 -7.063,-18.277 -7.063,-29.151 0,-8.56 1.433,-16.608 4.302,-24.143 2.868,-7.533 6.849,-14.168 11.943,-19.905 5.092,-5.735 11,-10.209 17.722,-13.419 6.72,-3.211 13.889,-4.816 21.51,-4.816 7.705,0 15.045,1.605 22.023,4.816 6.977,3.21 12.521,7.641 16.63,13.291 2.996,4.109 5.157,8.327 6.485,12.649 1.327,4.324 2.376,9.525 3.146,15.603 h -77.564 c 0.341,8.905 1.862,16.438 4.559,22.602 2.697,6.164 6.207,11.13 10.53,14.896 4.322,3.768 8.925,6.465 13.805,8.09 4.88,1.627 9.545,2.44 13.998,2.44 10.787,0.001 20.631,-3.936 29.536,-11.814 z m -70.502,-69.731 c -16.01,12.671 -24.014,29.279 -24.014,49.826 0,14.896 4.771,27.076 14.318,36.535 9.545,9.461 20.567,14.19 33.068,14.19 7.276,0 14.576,-1.477 21.895,-4.431 7.32,-2.953 13.504,-7.34 18.557,-13.163 -5.223,3.339 -10.552,6.058 -15.988,8.155 -5.438,2.099 -11.922,3.146 -19.455,3.146 -12.757,0 -23.394,-4.451 -31.912,-13.355 -8.52,-8.903 -12.777,-20.503 -12.777,-34.801 0,-9.074 1.413,-17.208 4.238,-24.399 2.825,-7.191 6.847,-14.425 12.07,-21.703 z m -1.156,25.299 h 44.818 v -4.238 c 0,-4.964 -0.899,-9.395 -2.697,-13.292 -1.798,-3.895 -4.26,-6.89 -7.384,-8.989 -3.126,-2.097 -6.7,-3.146 -10.723,-3.146 -6.507,0 -12.029,2.889 -16.566,8.668 -4.538,5.779 -7.02,12.778 -7.448,20.997 z m 48.928,0 h 8.989 c -0.257,-9.587 -2.227,-16.672 -5.907,-21.253 -3.682,-4.579 -9.846,-7.641 -18.492,-9.182 5.478,2.484 9.417,5.714 11.814,9.696 2.396,3.98 3.596,10.039 3.596,18.171 v 2.568 z"/><path id="path73" d="m 557.55,223.297 5.137,3.981 c -3.853,7.191 -8.434,13.099 -13.741,17.722 -5.309,4.623 -11.152,8.048 -17.529,10.273 -6.379,2.225 -13.035,3.339 -19.969,3.339 -9.418,0 -18.171,-2.27 -26.261,-6.806 -8.091,-4.537 -14.491,-11.086 -19.199,-19.648 -4.709,-8.56 -7.063,-18.277 -7.063,-29.151 0,-8.56 1.433,-16.608 4.302,-24.143 2.868,-7.533 6.849,-14.168 11.943,-19.905 5.092,-5.735 11,-10.209 17.722,-13.419 6.72,-3.211 13.889,-4.816 21.51,-4.816 7.705,0 15.045,1.605 22.023,4.816 6.977,3.21 12.521,7.641 16.63,13.291 2.996,4.109 5.157,8.327 6.485,12.649 1.327,4.324 2.376,9.525 3.146,15.603 h -77.564 c 0.341,8.905 1.862,16.438 4.559,22.602 2.697,6.164 6.207,11.13 10.53,14.896 4.322,3.768 8.925,6.465 13.805,8.09 4.88,1.627 9.545,2.44 13.998,2.44 10.787,0.001 20.632,-3.936 29.536,-11.814 z m -70.501,-69.731 c -16.01,12.671 -24.014,29.279 -24.014,49.826 0,14.896 4.771,27.076 14.318,36.535 9.545,9.461 20.567,14.19 33.068,14.19 7.276,0 14.576,-1.477 21.895,-4.431 7.32,-2.953 13.504,-7.34 18.557,-13.163 -5.223,3.339 -10.552,6.058 -15.988,8.155 -5.438,2.099 -11.922,3.146 -19.455,3.146 -12.757,0 -23.394,-4.451 -31.912,-13.355 -8.52,-8.903 -12.777,-20.503 -12.777,-34.801 0,-9.074 1.413,-17.208 4.238,-24.399 2.825,-7.191 6.847,-14.425 12.07,-21.703 z m -1.156,25.299 h 44.818 v -4.238 c 0,-4.964 -0.899,-9.395 -2.697,-13.292 -1.798,-3.895 -4.26,-6.89 -7.384,-8.989 -3.126,-2.097 -6.7,-3.146 -10.723,-3.146 -6.507,0 -12.029,2.889 -16.566,8.668 -4.538,5.779 -7.021,12.778 -7.448,20.997 z m 48.927,0 h 8.989 c -0.257,-9.587 -2.227,-16.672 -5.907,-21.253 -3.682,-4.579 -9.846,-7.641 -18.492,-9.182 5.478,2.484 9.417,5.714 11.814,9.696 2.396,3.98 3.596,10.039 3.596,18.171 v 2.568 z"/><path id="path75" d="m 641.921,81.01 v -7.063 h 89.25 v 7.063 h -3.981 c -6.678,0 -11.794,0.6 -15.346,1.798 -3.553,1.2 -6.058,3.403 -7.512,6.613 -1.457,3.211 -2.183,7.77 -2.183,13.677 v 125.721 c 0,4.88 0.835,8.668 2.504,11.365 1.67,2.697 4.688,4.688 9.054,5.972 4.366,1.284 10.53,1.926 18.492,1.926 6.762,0 12.97,-0.556 18.621,-1.669 5.65,-1.112 11.257,-3.082 16.823,-5.907 5.564,-2.825 11.301,-6.848 17.208,-12.071 5.907,-5.221 11.856,-11.728 17.85,-19.52 h 11.814 l -17.08,46.23 H 641.921 v -7.063 h 1.669 c 7.705,0 13.397,-0.707 17.08,-2.119 3.68,-1.413 6.184,-3.638 7.512,-6.678 1.327,-3.038 1.991,-7.298 1.991,-12.778 V 105.024 c 0,-6.421 -0.578,-11.257 -1.734,-14.511 -1.155,-3.252 -3.768,-5.65 -7.833,-7.191 -4.067,-1.541 -10.296,-2.312 -18.685,-2.312 z m 32.361,19.777 v 131.5 c 0,4.196 -0.75,7.448 -2.248,9.76 -1.499,2.312 -3.788,4.324 -6.87,6.036 0.341,0 1.069,0.086 2.183,0.257 1.112,0.172 1.84,0.257 2.183,0.257 8.646,0 12.97,-6.249 12.97,-18.749 V 106.565 c 0,-8.646 -0.664,-15.067 -1.991,-19.263 -1.328,-4.194 -5.159,-6.292 -11.493,-6.292 h -3.853 c 3.509,2.055 5.907,4.282 7.191,6.678 1.286,2.398 1.928,6.764 1.928,13.099 z m 87.068,147.295 h 23.5 l 11.044,-25.298 c -4.88,5.823 -10.081,10.767 -15.603,14.832 -5.522,4.067 -11.836,7.556 -18.941,10.466 z"/><path id="path77" d="m 855.095,155.75 c 0,0.343 0.556,1.585 1.669,3.724 1.112,2.141 1.669,4.153 1.669,6.036 0,3.682 -1.521,6.957 -4.559,9.824 -3.04,2.869 -6.828,4.302 -11.365,4.302 -4.366,0 -7.833,-1.134 -10.402,-3.403 -2.568,-2.267 -3.853,-4.9 -3.853,-7.897 0,-4.451 2.161,-8.817 6.485,-13.099 4.322,-4.28 10.273,-7.77 17.85,-10.466 7.577,-2.697 15.944,-4.045 25.106,-4.045 6.678,0 12.906,1.156 18.685,3.467 5.778,2.312 10.379,5.823 13.805,10.53 3.423,4.709 5.137,10.402 5.137,17.08 v 65.236 c 0,5.223 1.497,7.833 4.495,7.833 1.798,0 3.981,-1.413 6.549,-4.238 l 4.751,5.522 c -4.196,4.196 -8.07,7.364 -11.622,9.503 -3.554,2.139 -7.77,3.21 -12.649,3.21 -5.65,0 -10.061,-1.264 -13.227,-3.789 -3.168,-2.524 -5.394,-6.441 -6.678,-11.75 -11.814,10.189 -23.5,15.282 -35.058,15.282 -8.219,0 -14.748,-2.141 -19.584,-6.421 -4.837,-4.28 -7.255,-9.716 -7.255,-16.309 0,-5.907 1.477,-10.936 4.43,-15.089 2.954,-4.152 6.849,-7.834 11.687,-11.044 4.835,-3.211 11.963,-7.276 21.381,-12.2 9.417,-4.922 17.164,-9.138 23.244,-12.649 v -19.391 c 0,-5.821 -1.328,-10.229 -3.981,-13.227 -2.655,-2.996 -6.636,-4.495 -11.943,-4.495 -4.623,0 -8.241,0.835 -10.852,2.504 -2.611,1.67 -3.915,3.49 -3.915,5.459 z m 8.09,96.827 c -7.792,0 -14.02,-1.583 -18.685,-4.751 -4.667,-3.167 -6.999,-7.747 -6.999,-13.741 0,-4.366 1.134,-8.496 3.403,-12.393 2.267,-3.895 5.67,-8.239 10.209,-13.034 -6.935,4.025 -12.308,8.134 -16.116,12.328 -3.811,4.196 -5.715,9.162 -5.715,14.896 0,5.223 2.29,9.567 6.87,13.034 4.579,3.468 9.567,5.201 14.961,5.201 5.222,0.001 9.247,-0.513 12.072,-1.54 z m -12.071,-81.032 c -3.082,0.257 -5.438,-0.341 -7.063,-1.798 -1.627,-1.455 -2.44,-3.167 -2.44,-5.137 0,-2.653 0.727,-5.028 2.183,-7.127 1.455,-2.097 3.981,-5.114 7.577,-9.053 -6.08,3.082 -10.745,6.164 -13.998,9.246 -3.254,3.082 -4.88,6.549 -4.88,10.402 0,1.713 0.877,3.319 2.632,4.815 1.754,1.499 3.831,2.248 6.229,2.248 4.109,0 7.362,-1.198 9.76,-3.596 z m 34.673,63.31 v -41.222 c -10.959,6.164 -18.601,11.73 -22.923,16.694 -4.324,4.966 -6.485,10.959 -6.485,17.979 0,4.709 1.284,8.347 3.853,10.916 2.569,2.569 5.564,3.853 8.989,3.853 5.393,-10e-4 10.915,-2.74 16.566,-8.22 z m 4.237,-60.999 v 50.725 c 0,10.017 1.069,17.487 3.21,22.409 2.139,4.924 6.334,7.384 12.585,7.384 2.825,0 5.093,-0.341 6.806,-1.027 -5.137,-0.771 -8.776,-2.825 -10.916,-6.164 -2.141,-3.339 -3.21,-8.56 -3.21,-15.667 v -58.944 c 0,-8.903 -1.264,-15.045 -3.789,-18.428 -2.526,-3.381 -6.87,-5.414 -13.034,-6.1 3.339,1.713 5.564,4.196 6.678,7.448 1.113,3.255 1.67,9.375 1.67,18.364 z"/><path id="path79" d="m 1106.023,182.589 -31.59,76.023 h -9.889 l -29.023,-63.695 -26.583,63.695 h -9.888 l -40.837,-88.737 c -3.168,-7.105 -6.016,-12.071 -8.54,-14.896 -2.526,-2.825 -6.144,-4.408 -10.851,-4.751 v -7.32 h 58.045 v 7.32 c -6.507,0.257 -9.76,2.869 -9.76,7.833 0,1.457 0.257,3.082 0.771,4.88 0.514,1.798 1.112,3.467 1.798,5.008 0.684,1.541 1.497,3.254 2.44,5.137 l 23.757,50.725 15.41,-37.626 -7.063,-14.64 c -2.825,-6.078 -5.522,-10.679 -8.09,-13.805 -2.568,-3.124 -5.994,-5.628 -10.273,-7.512 v -7.32 h 63.053 v 7.32 c -4.709,0 -8.41,0.622 -11.107,1.862 -2.697,1.242 -4.045,3.961 -4.045,8.155 0,2.227 0.32,4.238 0.963,6.036 0.643,1.798 2.16,5.394 4.559,10.787 l 21.832,46.744 13.869,-34.159 c 0.77,-1.798 1.668,-3.831 2.695,-6.1 1.027,-2.268 1.928,-4.858 2.697,-7.77 0.771,-2.91 1.156,-5.992 1.156,-9.246 0,-4.023 -1.156,-7.555 -3.467,-10.595 -2.312,-3.038 -5.609,-4.944 -9.889,-5.714 v -7.32 h 44.176 v 7.32 c -9.845,2.654 -18.62,13.441 -26.326,32.361 z m -139.333,-4.752 34.416,74.996 h 2.055 c 1.284,-2.825 1.926,-5.137 1.926,-6.935 0,-2.91 -2.312,-9.202 -6.935,-18.877 l -25.427,-55.733 c -2.741,-6.078 -4.966,-10.508 -6.678,-13.292 -1.713,-2.781 -3.746,-4.793 -6.1,-6.035 -2.355,-1.24 -5.714,-1.818 -10.081,-1.734 1.798,1.284 3.487,3.04 5.073,5.265 1.583,2.227 3.359,5.287 5.329,9.182 1.969,3.897 4.11,8.284 6.422,13.163 z m 62.283,-6.035 37.369,81.032 h 1.541 c 1.625,-2.482 2.441,-4.793 2.441,-6.935 0,-2.739 -0.473,-5.243 -1.414,-7.513 -0.943,-2.267 -2.227,-5.028 -3.852,-8.283 l -26.326,-57.018 c -3.425,-7.276 -6.122,-12.37 -8.09,-15.282 -1.97,-2.91 -4.196,-4.9 -6.678,-5.972 -2.484,-1.069 -5.907,-1.605 -10.273,-1.605 3.423,2.141 6.206,4.924 8.347,8.347 2.139,3.427 4.451,7.835 6.935,13.229 z m 88.609,-21.831 h -19.135 c 2.738,1.798 4.623,3.833 5.65,6.1 1.027,2.269 1.754,5.416 2.184,9.438 0.77,-2.91 2.225,-5.799 4.365,-8.668 2.139,-2.867 4.452,-5.157 6.936,-6.87 z"/><path id="path81" d="m 130.843,422.829 v 54.449 c 0,5.137 0.749,9.098 2.247,11.879 1.497,2.783 3.532,4.752 6.1,5.907 2.568,1.156 6.206,1.906 10.916,2.247 4.708,0.344 9.074,0.601 13.099,0.771 v 7.062 h -93.36 v -7.062 c 6.935,-0.171 12.135,-0.557 15.603,-1.156 3.467,-0.598 6.206,-1.754 8.219,-3.467 2.01,-1.712 3.381,-3.917 4.109,-6.614 0.726,-2.696 1.091,-6.398 1.091,-11.108 V 362.602 c 0,-9.417 -0.407,-16.095 -1.22,-20.034 -0.814,-3.937 -3.254,-6.848 -7.319,-8.732 -4.067,-1.882 -10.896,-2.825 -20.483,-2.825 v -7.063 h 88.352 c 3.937,0 13.355,0.686 28.252,2.055 4.793,0.429 9.908,1.842 15.346,4.238 5.436,2.398 10.53,5.672 15.281,9.824 4.752,4.153 8.582,9.075 11.494,14.768 2.91,5.695 4.366,11.879 4.366,18.557 0,7.448 -1.477,14.17 -4.43,20.161 -2.954,5.994 -7.493,11.173 -13.612,15.539 -6.122,4.366 -13.827,7.749 -23.115,10.145 -9.291,2.398 -20.098,3.596 -32.426,3.596 h -28.51 z m -27.866,-61.768 v 120.713 c 0,8.135 -3.126,13.57 -9.375,16.31 h 3.339 c 9.503,0 14.254,-4.495 14.254,-13.484 V 367.096 c 0,-10.53 -0.064,-17.421 -0.193,-20.675 -0.128,-3.252 -0.686,-6.036 -1.669,-8.347 -0.985,-2.312 -2.741,-4.001 -5.266,-5.073 -2.526,-1.069 -6.4,-1.818 -11.622,-2.247 3.423,1.627 5.821,3.467 7.191,5.522 1.369,2.055 2.268,4.966 2.697,8.732 0.429,3.768 0.644,9.117 0.644,16.053 z m 27.866,54.706 h 17.979 c 10.872,0 19.905,-1.305 27.096,-3.917 7.191,-2.61 12.713,-7.019 16.566,-13.227 3.853,-6.207 5.779,-14.532 5.779,-24.978 0,-15.667 -5.265,-27.396 -15.795,-35.187 -4.196,-3.082 -8.434,-5.093 -12.713,-6.036 -4.282,-0.941 -9.589,-1.413 -15.924,-1.413 -7.278,0 -12.521,1.027 -15.731,3.082 -3.211,2.055 -5.223,5.137 -6.036,9.246 -0.814,4.109 -1.22,10.189 -1.22,18.236 v 54.194 z m 49.184,-1.413 c 10.273,-1.541 17.935,-5.606 22.987,-12.2 5.05,-6.592 7.577,-15.924 7.577,-27.995 0,-12.756 -2.568,-22.323 -7.705,-28.702 -5.137,-6.377 -12.842,-10.637 -23.115,-12.778 4.88,2.484 9.031,5.737 12.457,9.76 3.423,4.025 5.992,8.732 7.705,14.126 1.711,5.394 2.568,11.259 2.568,17.594 -0.001,20.376 -7.493,33.774 -22.474,40.195 z"/><path id="path83" d="m 296.888,390.725 v 19.776 c 6.591,-7.448 11.642,-12.604 15.153,-15.474 3.509,-2.868 7.747,-4.303 12.713,-4.303 4.28,0 7.898,1.521 10.851,4.56 2.954,3.039 4.431,6.87 4.431,11.493 0,4.796 -1.328,8.797 -3.981,12.007 -2.655,3.211 -5.994,4.816 -10.017,4.816 -1.798,0 -3.768,-0.342 -5.907,-1.027 -2.141,-0.685 -3.939,-1.584 -5.394,-2.697 -0.857,-0.685 -1.756,-1.412 -2.697,-2.184 -0.943,-0.77 -1.778,-1.368 -2.504,-1.797 -0.729,-0.428 -1.521,-0.643 -2.376,-0.643 -1.627,0 -3.232,0.622 -4.815,1.862 -1.585,1.242 -3.403,2.976 -5.458,5.2 v 62.026 c 0,4.452 0.62,7.621 1.862,9.503 1.24,1.884 3.166,3.062 5.778,3.531 2.611,0.472 7.169,0.707 13.677,0.707 v 7.062 h -68.96 v -7.062 h 3.467 c 9.93,0 14.896,-3.938 14.896,-11.814 v -57.66 c 0,-9.844 -6.122,-16.608 -18.364,-20.29 v -4.366 l 41.351,-13.228 h 6.294 z m -25.042,37.883 v 58.43 c 0,2.912 -0.472,5.073 -1.413,6.485 -0.943,1.413 -2.312,2.934 -4.109,4.56 4.88,-0.428 8.389,-1.734 10.53,-3.917 2.139,-2.184 3.21,-5.972 3.21,-11.365 v -54.192 c 0,-7.362 -1.284,-12.713 -3.853,-16.053 -2.568,-3.338 -6.636,-5.008 -12.2,-5.008 -0.429,0 -1.371,0.086 -2.825,0.257 -1.457,0.173 -2.44,0.257 -2.954,0.257 9.076,3.938 13.614,10.787 13.614,20.546 z m 33.646,-18.107 c 2.312,0 4.623,0.771 6.935,2.312 5.307,4.195 9.76,6.292 13.355,6.292 4.451,0 7.705,-2.867 9.76,-8.604 -2.398,1.2 -4.153,1.799 -5.265,1.799 -2.568,0 -5.137,-0.855 -7.705,-2.568 -3.254,-2.653 -5.951,-3.981 -8.09,-3.981 -2.056,-10e-4 -5.053,1.584 -8.99,4.75 z"/><path id="path85" d="m 349.924,449.926 c 0,-10.958 2.588,-20.975 7.769,-30.05 5.179,-9.073 12.242,-16.201 21.189,-21.382 8.945,-5.179 18.855,-7.77 29.729,-7.77 10.615,0 20.31,2.526 29.087,7.577 8.774,5.053 15.687,12.029 20.739,20.932 5.05,8.905 7.577,18.794 7.577,29.665 0,8.305 -1.521,16.16 -4.559,23.564 -3.04,7.406 -7.235,13.785 -12.585,19.135 -5.351,5.352 -11.493,9.482 -18.428,12.392 -6.935,2.91 -14.383,4.367 -22.345,4.367 -10.703,0 -20.482,-2.44 -29.344,-7.32 -8.86,-4.88 -15.881,-11.75 -21.061,-20.611 -5.179,-8.861 -7.768,-19.026 -7.768,-30.499 z m 45.589,53.422 c -11.13,-6.762 -19.478,-14.769 -25.042,-24.015 -5.566,-9.246 -8.347,-19.391 -8.347,-30.435 0,-8.39 1.326,-15.751 3.981,-22.088 2.653,-6.335 6.142,-11.792 10.466,-16.373 4.322,-4.579 9.737,-9.311 16.245,-14.19 -8.648,3.082 -15.882,7.406 -21.703,12.971 -5.823,5.565 -10.103,11.922 -12.842,19.069 -2.741,7.149 -4.109,14.704 -4.109,22.666 0,5.823 0.899,11.558 2.697,17.208 1.798,5.65 4.43,10.745 7.898,15.281 3.467,4.539 7.769,8.521 12.906,11.943 5.136,3.426 11.086,6.081 17.85,7.963 z m -13.741,-60.742 c 0,18.234 2.653,32.554 7.962,42.955 5.307,10.402 12.2,15.604 20.675,15.604 4.28,0 8.261,-1.776 11.943,-5.33 3.68,-3.552 6.614,-8.816 8.796,-15.795 2.184,-6.977 3.275,-15.517 3.275,-25.619 0,-17.807 -2.375,-31.697 -7.127,-41.672 -4.751,-9.973 -11.323,-14.961 -19.712,-14.961 -8.134,0 -14.469,3.746 -19.006,11.236 -4.538,7.493 -6.806,18.686 -6.806,33.582 z m 45.332,54.064 c 6.421,-3.51 11.343,-9.073 14.768,-16.694 3.423,-7.619 5.137,-16.951 5.137,-27.995 0,-27.225 -8.391,-44.988 -25.17,-53.294 5.992,5.994 10.293,13.355 12.906,22.088 2.611,8.732 3.917,20.463 3.917,35.188 0,9.332 -0.963,17.144 -2.89,23.436 -1.926,6.291 -4.816,12.05 -8.668,17.271 z"/><path id="path87" d="M 495.936,547.267 V 439.909 c 0,-7.962 -0.237,-13.761 -0.706,-17.4 -0.472,-3.638 -1.906,-6.72 -4.302,-9.246 -2.398,-2.524 -6.593,-4.858 -12.585,-6.999 v -5.009 l 42.121,-10.53 h 4.623 v 119.687 c 0,7.275 -0.343,13.483 -1.027,18.62 -0.686,5.137 -2.355,10.229 -5.008,15.282 -3.682,7.361 -9.204,13.204 -16.566,17.528 -7.364,4.322 -15.24,6.485 -23.629,6.485 -7.019,0 -12.627,-1.649 -16.823,-4.944 -4.194,-3.297 -6.292,-7.47 -6.292,-12.521 0,-3.682 1.264,-6.786 3.789,-9.311 2.526,-2.526 5.287,-3.788 8.283,-3.788 2.825,0 5.544,1.005 8.155,3.018 2.61,2.011 4.43,4.515 5.458,7.513 0.684,1.969 1.348,3.873 1.991,5.715 0.642,1.84 1.412,3.274 2.312,4.302 0.898,1.027 2.032,1.541 3.403,1.541 4.533,0 6.803,-4.196 6.803,-12.585 z m -22.088,-3.211 c -1.968,-1.199 -3.895,-1.797 -5.779,-1.797 -2.568,0 -4.559,0.919 -5.971,2.761 -1.413,1.84 -2.119,3.872 -2.119,6.1 0,3.423 1.435,6.271 4.302,8.54 2.87,2.268 7.043,3.66 12.521,4.174 -5.821,-3.854 -8.732,-8.091 -8.732,-12.714 -10e-4,-3.597 1.925,-5.952 5.778,-7.064 z m 34.416,-18.62 V 430.15 c 0,-7.705 -0.963,-13.783 -2.89,-18.235 -1.926,-4.45 -6.485,-6.678 -13.676,-6.678 -2.055,0 -3.724,0.086 -5.008,0.257 5.992,2.312 9.738,5.31 11.236,8.989 1.497,3.682 2.248,9.29 2.248,16.823 v 103.762 c 0.084,1.368 0.128,3.124 0.128,5.265 0,2.139 -0.15,4.794 -0.449,7.962 -0.301,3.166 -0.793,6.035 -1.477,8.604 4.451,-2.911 7.211,-6.85 8.283,-11.814 1.069,-4.968 1.605,-11.517 1.605,-19.649 z m 0.77,-197.508 c 3.252,0 6.292,0.814 9.118,2.44 2.825,1.627 5.05,3.833 6.678,6.614 1.625,2.783 2.44,5.801 2.44,9.053 0,3.254 -0.814,6.25 -2.44,8.989 -1.627,2.741 -3.853,4.902 -6.678,6.485 -2.825,1.585 -5.865,2.376 -9.118,2.376 -5.052,0 -9.333,-1.712 -12.842,-5.137 -3.511,-3.423 -5.265,-7.661 -5.265,-12.713 0,-4.964 1.776,-9.224 5.33,-12.778 3.551,-3.551 7.811,-5.329 12.777,-5.329 z m 1.926,4.11 h -1.926 c -3.939,0 -7.235,1.457 -9.888,4.366 -2.655,2.912 -3.981,6.122 -3.981,9.631 0,3.339 1.262,6.401 3.788,9.182 2.524,2.783 5.542,4.173 9.054,4.173 0.514,-0.084 1.005,-0.148 1.477,-0.193 0.47,-0.042 0.963,-0.064 1.477,-0.064 -2.398,-1.625 -4.282,-3.339 -5.65,-5.137 -1.371,-1.798 -2.055,-4.537 -2.055,-8.219 -10e-4,-5.649 2.568,-10.228 7.704,-13.739 z"/><path id="path89" d="m 651.963,473.298 5.137,3.98 c -3.853,7.191 -8.434,13.1 -13.741,17.723 -5.309,4.623 -11.152,8.048 -17.529,10.273 -6.379,2.225 -13.035,3.338 -19.969,3.338 -9.418,0 -18.171,-2.269 -26.261,-6.806 -8.091,-4.537 -14.491,-11.086 -19.199,-19.647 -4.709,-8.561 -7.063,-18.278 -7.063,-29.151 0,-8.56 1.433,-16.608 4.302,-24.143 2.868,-7.532 6.849,-14.168 11.943,-19.905 5.092,-5.734 11,-10.209 17.722,-13.419 6.72,-3.211 13.889,-4.816 21.51,-4.816 7.705,0 15.045,1.605 22.023,4.816 6.977,3.21 12.521,7.641 16.63,13.291 2.996,4.109 5.157,8.327 6.485,12.649 1.327,4.324 2.376,9.524 3.146,15.603 h -77.564 c 0.341,8.905 1.862,16.438 4.559,22.602 2.697,6.164 6.207,11.13 10.53,14.896 4.322,3.769 8.925,6.465 13.805,8.091 4.88,1.627 9.545,2.439 13.998,2.439 10.787,0 20.632,-3.936 29.536,-11.814 z m -70.501,-69.731 c -16.01,12.671 -24.014,29.279 -24.014,49.826 0,14.896 4.771,27.075 14.318,36.534 9.545,9.461 20.567,14.19 33.068,14.19 7.276,0 14.576,-1.477 21.895,-4.431 7.32,-2.953 13.504,-7.34 18.557,-13.163 -5.223,3.34 -10.552,6.059 -15.988,8.155 -5.438,2.099 -11.922,3.146 -19.455,3.146 -12.757,0 -23.394,-4.45 -31.912,-13.355 -8.52,-8.902 -12.777,-20.502 -12.777,-34.801 0,-9.073 1.413,-17.208 4.238,-24.399 2.825,-7.191 6.847,-14.424 12.07,-21.702 z m -1.156,25.298 h 44.818 v -4.237 c 0,-4.965 -0.899,-9.396 -2.697,-13.292 -1.798,-3.895 -4.26,-6.891 -7.384,-8.989 -3.126,-2.097 -6.7,-3.146 -10.723,-3.146 -6.507,0 -12.029,2.89 -16.566,8.669 -4.538,5.777 -7.021,12.776 -7.448,20.995 z m 48.927,0 h 8.989 c -0.257,-9.587 -2.227,-16.672 -5.907,-21.253 -3.682,-4.579 -9.846,-7.642 -18.492,-9.183 5.478,2.484 9.417,5.715 11.814,9.696 2.396,3.98 3.596,10.038 3.596,18.171 v 2.569 z"/><path id="path91" d="m 747.378,406.007 c 0,-2.312 -1.2,-4.258 -3.596,-5.843 -2.398,-1.584 -5.309,-2.376 -8.732,-2.376 -6.421,0 -12.244,1.862 -17.465,5.586 -5.223,3.725 -9.31,9.076 -12.264,16.053 -2.953,6.979 -4.43,14.876 -4.43,23.693 0,8.134 1.734,15.518 5.201,22.151 3.468,6.636 8.133,11.795 13.998,15.475 5.863,3.682 12.264,5.522 19.198,5.522 5.735,0 11.75,-1.305 18.043,-3.917 6.292,-2.61 11.321,-5.972 15.089,-10.081 l 4.495,6.035 c -6.764,9.76 -14.876,17.253 -24.335,22.474 -9.46,5.221 -19.07,7.833 -28.83,7.833 -9.076,0 -17.744,-2.483 -26.004,-7.447 -8.263,-4.965 -14.854,-11.707 -19.776,-20.227 -4.924,-8.518 -7.384,-17.828 -7.384,-27.931 0,-8.219 1.497,-16.052 4.495,-23.501 2.996,-7.447 7.298,-14.104 12.906,-19.969 5.606,-5.863 12.264,-10.466 19.969,-13.805 7.705,-3.339 16.223,-5.009 25.555,-5.009 7.533,0 14.383,1.136 20.547,3.403 6.164,2.27 11.022,5.416 14.576,9.439 3.551,4.024 5.329,8.433 5.329,13.227 0,4.195 -1.541,7.663 -4.623,10.402 -3.082,2.74 -6.722,4.109 -10.916,4.109 -3.853,0 -7.043,-1.349 -9.567,-4.046 -2.526,-2.696 -3.789,-5.586 -3.789,-8.668 0,-0.598 0.385,-2.546 1.156,-5.843 0.769,-3.292 1.154,-5.539 1.154,-6.739 z m -34.159,-7.32 c -8.219,3.082 -15.175,7.32 -20.868,12.714 -5.695,5.394 -10.039,11.666 -13.035,18.813 -2.998,7.149 -4.495,14.404 -4.495,21.767 0,10.017 2.396,19.006 7.191,26.968 4.793,7.962 11.108,14.148 18.941,18.557 7.834,4.41 15.773,6.613 23.822,6.613 11.728,0 22.772,-3.853 33.132,-11.558 -11.216,3.682 -20.248,5.522 -27.096,5.522 -8.732,0 -16.738,-1.969 -24.014,-5.908 -7.278,-3.937 -13.057,-9.416 -17.336,-16.438 -4.282,-7.019 -6.421,-14.852 -6.421,-23.5 0,-10.017 2.588,-19.626 7.77,-28.83 5.179,-9.202 12.649,-17.442 22.409,-24.72 z m 36.085,19.905 c 0,2.741 1.047,4.796 3.146,6.164 2.097,1.37 4.386,2.055 6.87,2.055 0.771,0 2.867,-0.341 6.292,-1.027 -5.309,-1.111 -7.962,-3.853 -7.962,-8.219 0,-0.341 0.193,-1.326 0.578,-2.954 0.386,-1.625 0.578,-2.995 0.578,-4.109 0,-4.707 -3.339,-8.303 -10.017,-10.787 1.882,2.655 2.825,5.095 2.825,7.32 0,1.457 -0.385,3.425 -1.156,5.907 -0.769,2.484 -1.154,4.366 -1.154,5.65 z"/><path id="path93" d="m 800.928,474.068 v -73.07 h -13.741 v -6.549 c 7.533,-5.65 13.183,-9.995 16.951,-13.034 3.766,-3.038 7.34,-6.441 10.723,-10.21 3.381,-3.766 6.27,-7.705 8.668,-11.814 h 6.806 v 33.518 h 31.848 v 8.09 h -31.848 v 76.794 c 0,5.65 0.684,9.868 2.055,12.649 1.369,2.783 3.68,4.174 6.935,4.174 3.082,0 5.927,-0.854 8.54,-2.568 2.611,-1.712 5.799,-4.366 9.567,-7.962 l 4.751,5.008 c -6.421,6.594 -12.308,11.494 -17.658,14.704 -5.351,3.211 -11.493,4.815 -18.428,4.815 -6.593,0 -11.73,-1.456 -15.41,-4.365 -3.682,-2.91 -6.229,-6.871 -7.641,-11.879 -1.412,-5.01 -2.118,-11.109 -2.118,-18.301 z m 12.585,-94.901 -8.476,7.063 v 85.27 c 0,11.387 1.477,19.67 4.431,24.849 2.953,5.181 8.239,7.77 15.859,7.77 4.023,0 8.046,-0.643 12.071,-1.926 -7.792,0.256 -13.721,-1.562 -17.786,-5.458 -4.067,-3.895 -6.1,-10.38 -6.1,-19.456 v -98.112 z"/></g><polygon id="polygon95" fill-rule="evenodd" points="1363.148 599.843 259.923 599.843 1360.775 603.709" clip-rule="evenodd"/><polygon id="polygon97" fill-rule="evenodd" points="1561.396 606.402 1561.39 599.843 1388.598 599.843 1388.516 604.081" clip-rule="evenodd"/><path id="path99" fill-rule="evenodd" d="M1826.935,599.843h-5.685h-197.989l0.858,6.781l196.635-2.741l6.504-0.049 C1827.563,602.504,1827.17,601.173,1826.935,599.843z" clip-rule="evenodd"/><path id="path101" fill-rule="evenodd" d="M2110.66,599.843c-0.675-0.934-47.463-1.128-47.463-1.128 c0.043,0.196-0.065,2.683,0,2.889C2063.197,601.604,2111.335,600.776,2110.66,599.843z" clip-rule="evenodd"/><path id="circle123" d="M 1474.2188 98.78125 C 1437.4095 98.78125 1407.5625 128.62827 1407.5625 165.4375 C 1407.5625 202.24673 1437.4095 232.09375 1474.2188 232.09375 C 1511.028 232.09375 1540.875 202.24673 1540.875 165.4375 C 1540.875 128.62827 1511.028 98.78125 1474.2188 98.78125 z M 1482.1562 119.3125 C 1511.5417 119.3125 1535.375 143.14583 1535.375 172.53125 C 1535.375 201.91667 1511.5417 225.71875 1482.1562 225.71875 C 1452.7708 225.71875 1428.9688 201.91667 1428.9688 172.53125 C 1428.9688 143.14583 1452.7708 119.3125 1482.1562 119.3125 z"/></svg>