<?xml version="1.0" encoding="UTF-8" standalone="no"?>
<svg
   width="844.372"
   height="935.08"
   version="1.1"
   id="svg116"
   sodipodi:docname="full-body-left-hand.svg"
   inkscape:version="1.1.2 (0a00cf5339, 2022-02-04)"
   xmlns:inkscape="http://www.inkscape.org/namespaces/inkscape"
   xmlns:sodipodi="http://sodipodi.sourceforge.net/DTD/sodipodi-0.dtd"
   xmlns:xlink="http://www.w3.org/1999/xlink"
   xmlns="http://www.w3.org/2000/svg"
   xmlns:svg="http://www.w3.org/2000/svg">
  <sodipodi:namedview
     id="namedview118"
     pagecolor="#505050"
     bordercolor="#eeeeee"
     borderopacity="1"
     inkscape:pageshadow="0"
     inkscape:pageopacity="0"
     inkscape:pagecheckerboard="0"
     showgrid="false"
     inkscape:zoom="0.41333428"
     inkscape:cx="365.32174"
     inkscape:cy="387.09588"
     inkscape:window-width="1920"
     inkscape:window-height="1020"
     inkscape:window-x="1280"
     inkscape:window-y="23"
     inkscape:window-maximized="1"
     inkscape:current-layer="svg116" />
  <style
     id="style2"><![CDATA[.G{fill:#f3c33e}.H{fill:#875336}]]></style>
  <g
     fill="#ffffff"
     id="g8"
     transform="matrix(-1,0,0,1,844.3715,0)">
    <ellipse
       cx="296.50601"
       cy="186.24001"
       rx="12.38"
       ry="13.02"
       id="ellipse4" />
    <ellipse
       cx="432.10599"
       cy="186.24001"
       rx="12.38"
       ry="13.02"
       id="ellipse6" />
  </g>
  <path
     d="m 216.0555,211.85 8.66,100.5 c -11.55,-2.05 -33.02,-5.11 -58.4,-5.11 -10.79,0 -22.28,0.55 -34.01,1.97 -37.160002,4.49 -65.750002,14.63 -79.650002,20.35 l -8.81,-100.23 c 10.65,-4.64 40.6,-16.41 80.220002,-21.2 40.42,-4.88 78.83,1.22 91.99,3.72 z m 325.43,409.04 c -0.86,7.41 -7.14,12.99 -14.6,12.99 h -80.92 c -7.24,0 -13.34,-5.18 -14.5,-12.32 l -18.58,-113.7 a -14.71,14.71 0 0 1 3.15,-11.7 c 2.68,-3.27 6.65,-5.22 10.87,-5.35 l 113.19,-3.69 c 0.16,-0.01 0.32,-0.01 0.48,-0.01 4.11,0 8.02,1.71 10.81,4.75 2.9,3.15 4.28,7.4 3.78,11.65 z m 116.76,-49.02 c -7.2,5.6 -15.63,7.8 -23.71,6.21 -8.09,-1.6 -15.04,-6.84 -19.57,-14.76 -4.8,-8.39 -6.33,-18.67 -4.3,-28.96 2.03,-10.29 7.35,-19.22 14.98,-25.15 5.67,-4.41 12.1,-6.71 18.53,-6.71 1.73,0 3.47,0.17 5.19,0.51 8.09,1.6 15.04,6.84 19.57,14.76 4.8,8.39 6.33,18.67 4.3,28.96 -2.04,10.28 -7.36,19.21 -14.99,25.14 z m 94.79,143.35 c 5.32,3.75 11.52,6.82 18.39,8.89 6.26,1.89 12.52,2.78 18.51,2.78 16.7,0 31.28,-6.95 38.01,-18.66 3.62,11.75 3.33,27.74 1.79,34.63 -1.83,8.17 -10.49,39.78 -13.77,51.71 -5.72,0.25 -17.15,0.26 -34.26,-1.98 l 12.49,-47.39 c 0.48,-1.81 -0.6,-3.66 -2.41,-4.14 -1.81,-0.48 -3.66,0.6 -4.14,2.41 l -12.68,48.1 c -18.48,-3.36 -33.82,-11.48 -40.85,-15.71 l 8.46,-29.95 z m -566.51,-393.71 v 21.89 c 0,15.86 -12.9,28.77 -28.77,28.77 h -41.65 c -15.86,0 -28.770002,-12.9 -28.770002,-28.77 v -11.34 c 13.010002,-3.68 28.820002,-7.24 46.590002,-9.38 18.74,-2.27 37.04,-2.17 52.6,-1.17 z"
     class="G"
     id="path10" />
  <path
     d="m 14.595498,199.74 11.4,-2.31 a -1.29,1.29 0 0 1 1.03,0.23 -1.27,1.27 0 0 1 0.51,0.92 l 1.98,22.58 -0.08,0.04 10.68,123.93 c -0.07,0.04 -0.14,0.08 -0.22,0.09 l -13.13,2.05 c -0.06,0.01 -0.24,0.04 -0.43,-0.11 -0.19,-0.15 -0.21,-0.33 -0.21,-0.39 l -12.55,-145.65 c -0.06,-0.66 0.38,-1.25 1.02,-1.38 z"
     class="H"
     id="path12" />
  <path
     d="m 654.8555,665.46 h -240.03 c -24.23,-50.61 -35.95,-176.97 -37.88,-199.45 65.12,-24.25 172.44,-20.94 173.53,-20.91 h 0.13 0.13 1.71 c 67.36,0 137.27,19 155.55,24.34 l -1.44,12.79 a -40.86,40.86 0 0 0 -8.05,24.39 c 0,10.6 4.04,20.27 10.65,27.57 z m -97.47,-179.12 c -4.5,-4.9 -10.91,-7.58 -17.55,-7.36 l -113.19,3.69 c -6.56,0.21 -12.72,3.25 -16.89,8.32 -4.17,5.07 -5.96,11.7 -4.9,18.18 l 18.58,113.7 a -22.74,22.74 0 0 0 22.53,19.15 h 80.93 c 11.59,0 21.34,-8.68 22.68,-20.19 l 13.69,-117.39 c 0.76,-6.61 -1.38,-13.2 -5.88,-18.1 z m 129.2,21.32 c -7.51,-13.11 -19.33,-21.85 -33.28,-24.6 -13.95,-2.76 -28.21,0.83 -40.14,10.1 -11.5,8.94 -19.48,22.17 -22.46,37.27 -2.98,15.1 -0.64,30.37 6.6,43.01 7.51,13.11 19.33,21.85 33.28,24.6 3.07,0.61 6.15,0.91 9.22,0.91 10.89,0 21.61,-3.77 30.92,-11.01 11.5,-8.94 19.48,-22.17 22.46,-37.27 2.98,-15.1 0.64,-30.37 -6.6,-43.01 z m -127.41,-459.39 -0.25,0.01 a -840.71,840.71 0 0 0 -32.61,2.64 l -0.17,-3.24 c 0,-18.8 15.29,-34.09 34.09,-34.09 18.8,0 34.09,15.29 34.09,34.09 0,0.44 -0.02,0.87 -0.03,1.3 -20.15,-1.04 -33.74,-0.74 -35.12,-0.71 z m -371.61,531.72 c -4.23,-3.7 -9.02,-6.78 -14.22,-9.08 l 6.88,98.37 c 4.82,-2.98 9.14,-6.69 12.82,-10.96 8.45,-9.77 13.57,-22.49 13.57,-36.4 0,-16.7 -7.38,-31.7 -19.05,-41.93 z"
     class="G"
     id="path14" />
  <path
     d="m 253.5755,327.81 -13.13,2.05 c -0.06,0.01 -0.24,0.04 -0.43,-0.11 -0.19,-0.15 -0.21,-0.33 -0.21,-0.39 l -12.55,-145.65 a -1.28,1.28 0 0 1 1.02,-1.37 l 11.4,-2.31 a -1.22,1.22 0 0 1 1.02,0.23 -1.25,1.25 0 0 1 0.51,0.92 l 12.83,146.04 a -0.54,0.54 0 0 1 -0.46,0.59 z"
     class="H"
     id="path16" />
  <path
     d="m 777.7155,297 c -25.61,0 -46.45,-28.5 -46.45,-63.54 0,-35.04 20.84,-63.54 46.45,-63.54 4.55,0 8.94,0.91 13.1,2.59 l 1.06,1.09 1.41,0.01 c 17.97,8.78 30.88,32.29 30.88,59.85 0,35.04 -20.84,63.54 -46.45,63.54 z"
     class="G"
     id="path18" />
  <path
     d="m 369.3255,522.94 c 1.93,15.46 4.32,32.55 7.21,49.81 -4.34,2.71 -9.37,4.19 -14.54,4.19 -15.17,0 -27.51,-12.34 -27.51,-27.51 0,-15.16 12.34,-27.5 27.51,-27.5 2.51,-0.01 4.96,0.35 7.33,1.01 z"
     class="H"
     id="path20" />
  <path
     d="m 677.0155,230.21 c 0,44.31 36.05,80.36 80.36,80.36 a -80.53,80.53 0 0 0 11.55,-0.84 -53.8,53.8 0 0 0 3.6,0.53 v 38.89 a -19.87,19.87 0 0 1 -2.3,9.35 -19.81,19.81 0 0 1 -1.17,1.93 l -95.9,-16.35 -299.61,17.32 c -5.7,0.33 -11.33,-1.38 -15.69,-4.82 -0.16,-1.04 -0.27,-2.1 -0.27,-3.19 V 144.5 l -0.06,-0.44 c -0.03,-0.34 -0.94,-11.02 10.82,-24.83 18.66,-21.92 67,-49.67 191.3,-57.4 3.58,-0.08 86.42,-1.48 152.36,21.33 54.12,18.73 60.22,55.47 60.66,68.16 a -80.42,80.42 0 0 0 -15.28,-1.47 c -44.32,0 -80.37,36.05 -80.37,80.36 z m -272.56,76.03 c 0.11,0.8 0.81,1.38 1.62,1.33 l 149.36,-9.52 c 0.73,-0.05 1.32,-0.6 1.42,-1.32 l 4.83,-34.85 c 0.13,-0.97 -0.66,-1.81 -1.63,-1.74 l -158.56,11.75 c -0.88,0.07 -1.52,0.86 -1.41,1.73 z m 16.62,-147.74 c -22.77,0 -41.23,19.41 -41.23,43.35 0,23.94 18.46,43.35 41.23,43.35 22.77,0 41.23,-19.41 41.23,-43.35 0,-23.95 -18.46,-43.35 -41.23,-43.35 z m 135.61,0 c -22.77,0 -41.23,19.41 -41.23,43.35 0,23.94 18.46,43.35 41.23,43.35 22.77,0 41.23,-19.41 41.23,-43.35 -0.01,-23.95 -18.46,-43.35 -41.23,-43.35 z"
     class="G"
     id="path22" />
  <path
     d="m 668.3655,71.61 4.78,272.47 95.9,16.35 1.17,-1.93 a -19.84,19.84 0 0 0 2.3,-9.35 v -38.89 l -3.59,-0.52 c -3.79,0.54 -7.67,0.83 -11.55,0.83 -44.31,0 -80.36,-36.05 -80.36,-80.36 0,-44.31 36.05,-80.35 80.36,-80.35 a -80.49,80.49 0 0 1 15.28,1.46 c -0.44,-12.69 -6.54,-49.44 -60.66,-68.16 -14.09,-4.88 -28.94,-8.64 -43.63,-11.55 z"
     fill="#dbac45"
     id="path24" />
  <path
     d="m 109.2855,459.07 0.06,2.01 15.75,225.15 0.5,7.13 3.69,52.72 c 1.08,15.44 14.52,27.14 29.99,26.05 15.44,-1.08 27.13,-14.53 26.05,-29.98 l -3.51,-50.2 -0.54,-7.76 -15.89,-227.03 a -27.9,27.9 0 0 0 -9.59,-19.24 c -5.67,-4.92 -12.9,-7.34 -20.39,-6.81 -14.65,1.02 -26.12,13.31 -26.12,27.96 z"
     class="G"
     id="path26" />
  <path
     d="m 109.2855,459.07 0.06,2.01 15.75,225.15 0.5,7.13 3.69,52.72 c 0.53,7.66 4.11,14.4 9.47,19.11 -2.45,-3.82 -3.99,-8.28 -4.33,-13.11 l -3.69,-52.72 -0.5,-7.13 -15.75,-225.15 c -0.04,-0.65 -0.06,-1.34 -0.06,-2.01 0,-14.65 11.47,-26.94 26.12,-27.96 7.49,-0.53 14.72,1.89 20.39,6.81 0.05,0.04 0.1,0.08 0.14,0.13 a -27.67,27.67 0 0 0 -5.28,-6.13 c -5.67,-4.92 -12.9,-7.34 -20.39,-6.81 -14.65,1.02 -26.12,13.31 -26.12,27.96 z"
     fill="#ffffff"
     id="path28" />
  <path
     d="m 578.2255,390.93 v 41.45 c -8.56,-0.54 -17.19,-0.84 -25.78,-0.84 h -1.63 c -1.28,-0.04 -6.82,-0.2 -15.4,-0.22 v -39.97 l 21.19,0.58 0.25,-0.01 z"
     class="H"
     id="path30" />
  <path
     d="m 530.0955,825.28 c 69.22,0 131.68,36.61 165.53,96.28 h -331.06 c 33.85,-59.67 96.3,-96.28 165.53,-96.28 z"
     class="G"
     id="path32" />
  <path
     d="m 218.6355,607.42 c 57.51,-4.76 90.26,-28.77 105.05,-43.21 5.95,15.36 20.87,26.28 38.31,26.28 h 0.19 c -10.8,14.33 -31.87,36.92 -65.19,51.1 -37.04,15.76 -69.69,15.29 -85.42,13.72 5.47,-9.91 8.6,-21.29 8.6,-33.39 a -69.33,69.33 0 0 0 -1.54,-14.5 z"
     class="H"
     id="path34" />
  <path
     d="m 134.4455,417.57 a -41.32,41.32 0 0 0 -12.1,2.72 v -34.56 h 28.35 v 33.91 c -5.15,-1.74 -10.65,-2.46 -16.25,-2.07 z m -12.01,-222.89 c -28.540002,3.45 -52.020002,10.23 -67.680002,15.79 l -1.49,-28.77 c 8.7,-4.19 32.79,-14.25 67.240002,-16.43 34.11,-2.16 61.11,2.28 71.87,4.47 v 24.92 c -18.64,-1.99 -43.68,-3.16 -69.94,0.02 z m 629.9,-31.06 c -20.44,12.31 -34.64,38.98 -34.64,69.84 0,25.19 9.46,47.6 24.04,61.68 -29.32,-7.06 -51.17,-33.48 -51.17,-64.93 0.01,-35.14 27.28,-64 61.77,-66.59 z m -440.95,83.43 c 0,-26.27 13.85,-48.42 32.63,-54.1 v 108.22 c -18.78,-5.69 -32.63,-27.84 -32.63,-54.12 z"
     class="G"
     id="path36" />
  <g
     class="H"
     id="g42"
     transform="matrix(-1,0,0,1,844.3715,0)">
    <circle
       cx="104.786"
       cy="506.60999"
       r="27.51"
       id="circle38" />
    <path
       d="M 376.766,821.5 V 679.02 h -40.68 v 133.86 a 203.71,203.71 0 0 1 40.68,8.62 z m -92.21,-7.61 V 679.02 h -40.68 v 145.19 a 203.44,203.44 0 0 1 40.68,-10.32 z"
       id="path40" />
  </g>
  <path
     d="m 725.7055,674.87 c 2.47,-0.56 5.4,0.06 7.86,0.94 -1.98,10 1.38,20.47 8.58,29.33 l -11.03,32.4 c -1.07,-0.04 -2.48,-0.15 -4.3,-0.36 -4.34,-0.51 -9.97,-4.79 -12.39,-7.18 0.31,-2.56 1.63,-8.69 5.55,-22.82 3.59,-12.94 5.13,-25.68 5.73,-32.31 z"
     class="G"
     id="path44" />
  <path
     d="m 789.5255,664.01 c 19.09,5.75 31.96,21.4 28.12,34.17 -3.85,12.77 -23.22,18.7 -42.31,12.95 -19.09,-5.75 -31.96,-21.4 -28.12,-34.17 3.85,-12.77 23.23,-18.7 42.31,-12.95 z m -11.59,-142.72 c 13,15.51 36.18,47.26 40.36,80.74 3.59,28.79 0.22,49.01 -3.01,60.51 -6.02,-4.96 -13.44,-8.99 -21.85,-11.52 -6.34,-1.91 -12.68,-2.79 -18.74,-2.77 1.58,-20.47 1.9,-67.26 -22.67,-102.51 a -41.27,41.27 0 0 0 25.91,-24.45 z"
     class="H"
     id="path46" />
  <g
     fill="#ffffff"
     id="g54"
     transform="matrix(-1,0,0,1,844.3715,0)">
    <use
       xlink:href="#B"
       id="use48"
       x="0"
       y="0"
       width="100%"
       height="100%" />
    <use
       xlink:href="#B"
       x="135.60001"
       id="use50"
       y="0"
       width="100%"
       height="100%" />
    <path
       d="m 475.046,522.94 -0.63,4.98 3.02,-0.19 c 15.17,0 27.51,12.34 27.51,27.5 0,5.4 -1.59,10.44 -4.29,14.69 5.65,-5.04 9.23,-12.35 9.23,-20.5 0,-15.16 -12.34,-27.5 -27.51,-27.5 -2.51,0 -4.96,0.36 -7.33,1.02 z m -197.3,-255.24 4.83,34.84 c 0.1,0.72 0.69,1.27 1.42,1.32 l 149.36,9.52 c 0.8,0.05 1.51,-0.53 1.62,-1.33 l 0.62,-4.66 -146.66,-9.34 c -0.73,-0.05 -1.32,-0.6 -1.42,-1.32 l -4.23,-30.49 -3.91,-0.29 a 1.54,1.54 0 0 0 -1.63,1.75 z m -54.57,303.52 c 2.39,-2.2 4.49,-4.85 6.24,-7.89 4.8,-8.39 6.33,-18.67 4.3,-28.96 -2.03,-10.29 -7.35,-19.22 -14.98,-25.15 -5.67,-4.41 -12.1,-6.71 -18.53,-6.71 -1.73,0 -3.47,0.17 -5.19,0.51 -7.35,1.45 -13.76,5.92 -18.27,12.67 3.82,-3.51 8.36,-5.88 13.33,-6.86 a 26.7,26.7 0 0 1 5.19,-0.51 c 6.43,0 12.85,2.3 18.53,6.71 7.63,5.93 12.95,14.86 14.98,25.15 2.03,10.29 0.51,20.57 -4.3,28.96 -0.41,0.71 -0.85,1.4 -1.3,2.08 z m 85.79,-139.89 v -39.97 l -21.19,0.58 -0.25,-0.01 -21.38,-0.99 v 6.04 l 16.44,0.76 0.25,0.01 21.19,-0.58 v 34.18 z m -206.34,-136.19 0.5,-0.13 1.46,-1.88 z m 305.34,332.23 c -0.23,1.39 -0.65,2.71 -1.22,3.93 3.2,-2.2 5.49,-5.64 6.16,-9.74 l 18.58,-113.7 a 14.71,14.71 0 0 0 -3.15,-11.7 c -2.68,-3.27 -6.65,-5.22 -10.87,-5.35 l -113.19,-3.69 c -0.16,-0.01 -0.32,-0.01 -0.48,-0.01 -4.11,0 -8.02,1.71 -10.81,4.75 -1.01,1.1 -1.83,2.34 -2.46,3.67 2.43,-1.68 5.33,-2.6 8.33,-2.6 0.16,0 0.32,0 0.48,0.01 l 113.19,3.69 c 4.23,0.14 8.19,2.09 10.87,5.35 a 14.72,14.72 0 0 1 3.15,11.7 z m 314.05,-207.08 v -34.56 h -28.35 v 5.81 h 23.41 v 27.2 c 1.69,0.43 3.34,0.93 4.94,1.55 z m -437.46,393.6 V 679.02 h -40.68 v 5.81 h 35.74 v 129.85 z m 434.37,-642.82 c 34.44,2.18 58.54,12.24 67.24,16.43 l -1.11,21.39 4.56,1.57 1.49,-28.77 c -8.7,-4.19 -32.79,-14.25 -67.24,-16.43 -34.11,-2.16 -61.11,2.28 -71.87,4.47 v 4.87 c 12.88,-2.28 37.2,-5.41 66.93,-3.53 z m -107.77,17.08 a 1.28,1.28 0 0 1 1.02,1.37 l -12.04,139.75 3.79,0.59 c 0.06,0.01 0.24,0.04 0.43,-0.11 0.19,-0.15 0.21,-0.33 0.21,-0.39 l 12.55,-145.65 a 1.28,1.28 0 0 0 -1.02,-1.37 l -11.4,-2.31 a 1.22,1.22 0 0 0 -1.02,0.23 1.25,1.25 0 0 0 -0.51,0.92 l -0.46,5.26 z M 376.766,821.5 V 679.02 h -40.68 v 5.81 h 35.74 v 135.15 z m 151.28,-568.64 c 0,14.88 -4.44,28.44 -11.71,38.43 10.14,-10.16 16.65,-26.23 16.65,-44.25 0,-26.27 -13.85,-48.42 -32.63,-54.1 v 7.74 c 16.22,7.79 27.69,28.28 27.69,52.18 z m -461.61,268.43 -4.86,6 c 4.48,11.5 13.99,20.5 25.83,24.27 -22.54,32.34 -24.13,74.38 -23.02,96.91 1.78,-0.15 3.55,-0.22 5.29,-0.22 -1.58,-20.47 -1.9,-67.26 22.67,-102.51 a 41.27,41.27 0 0 1 -25.91,-24.45 z m 247.84,303.99 c -58.33,0 -111.85,26 -147.5,69.87 35.56,-40.34 86.86,-64.06 142.56,-64.06 66.95,0 127.55,34.24 162.09,90.47 h 8.38 c -33.85,-59.67 -96.3,-96.28 -165.53,-96.28 z M 118.666,674.87 c -2.47,-0.56 -5.4,0.06 -7.86,0.94 0.31,1.55 0.47,3.11 0.53,4.68 0.82,-0.02 1.63,0.02 2.39,0.2 0.61,6.62 2.14,19.37 5.74,32.31 3.24,11.67 4.7,17.88 5.29,21.13 2.14,-1.39 4.04,-2.97 5.2,-4.12 -0.31,-2.56 -1.63,-8.69 -5.55,-22.82 -3.6,-12.95 -5.14,-25.69 -5.74,-32.32 z m 507.07,-67.45 c -57.51,-4.76 -90.26,-28.77 -105.05,-43.21 -0.97,2.5 -2.19,4.86 -3.61,7.09 15.37,14.53 47.87,37.3 103.72,41.93 -1,4.68 -1.54,9.53 -1.54,14.51 0,10.02 2.17,19.52 6.01,28.13 2.81,-0.14 5.34,-0.33 7.53,-0.55 -5.47,-9.91 -8.6,-21.29 -8.6,-33.39 0,-4.98 0.54,-9.83 1.54,-14.51 z m 204.04,-407.68 -11.4,-2.31 a 1.29,1.29 0 0 0 -1.03,0.23 1.27,1.27 0 0 0 -0.51,0.92 l -0.46,5.26 8.46,1.72 a 1.28,1.28 0 0 1 1.02,1.37 l -12.04,139.75 3.79,0.59 c 0.06,0.01 0.24,0.04 0.43,-0.11 0.19,-0.15 0.21,-0.33 0.21,-0.39 l 12.55,-145.65 c 0.06,-0.66 -0.38,-1.25 -1.02,-1.38 z m -109.47,8.4 c -40.42,-4.89 -78.83,1.21 -91.99,3.71 l -0.43,5 c 16.1,-2.76 50.97,-7.31 87.48,-2.9 39.62,4.79 69.57,16.55 80.22,21.2 l -8.15,92.71 4.28,1.71 8.81,-100.23 c -10.65,-4.65 -40.6,-16.41 -80.22,-21.2 z m -62.46,113.37 v 5.54 c 14.43,-0.72 30.86,-0.59 47.65,1.44 17.77,2.15 33.58,5.7 46.59,9.38 v 11.34 c 0,5.71 -1.69,11.02 -4.57,15.5 5.82,-5.27 9.51,-12.86 9.51,-21.31 v -11.34 c -13.01,-3.68 -28.82,-7.24 -46.59,-9.38 -18.73,-2.27 -37.03,-2.17 -52.59,-1.17 z M 91.336,715.22 c -5.32,3.75 -11.52,6.82 -18.39,8.89 -6.26,1.89 -12.52,2.78 -18.51,2.78 -16.7,0 -31.28,-6.95 -38.01,-18.66 -0.95,3.1 -1.63,6.49 -2.09,9.93 7.52,9.2 20.53,14.54 35.16,14.54 5.99,0 12.25,-0.89 18.51,-2.78 6.87,-2.07 13.07,-5.14 18.39,-8.89 l 10.45,30.71 7.72,27.33 a 128.45,128.45 0 0 0 5.68,-3.2 l -8.46,-29.95 z m 5.82,-38.26 c -3.85,-12.77 -23.22,-18.7 -42.31,-12.95 -10.82,3.26 -19.64,9.7 -24.55,16.99 5.01,-4.8 11.79,-8.82 19.61,-11.18 19.09,-5.75 38.46,0.18 42.31,12.95 1.67,5.53 0.19,11.6 -3.57,17.18 7.22,-6.92 10.78,-15.45 8.51,-22.99 z m -49.51,69.92 c -1.81,0.48 -2.89,2.33 -2.41,4.14 l 11.16,42.32 6.27,-0.75 -11.84,-44.9 c -0.83,-0.77 -2.01,-1.12 -3.18,-0.81 z m 84.64,-240.27 c 0,-15.17 -12.34,-27.51 -27.51,-27.51 -9.76,0 -18.33,5.13 -23.22,12.82 4.87,-4.34 11.26,-7.01 18.28,-7.01 15.17,0 27.51,12.34 27.51,27.51 0,5.4 -1.59,10.43 -4.29,14.69 5.65,-5.04 9.23,-12.35 9.23,-20.5 z m 21.51,-276.4 c 0,-35.14 -27.27,-64 -61.76,-66.59 4.16,2.51 8.06,5.62 11.64,9.23 26.25,9 45.18,33.9 45.18,63.17 0,15.1 -5.05,29.04 -13.54,40.24 11.44,-11.99 18.48,-28.21 18.48,-46.05 z m 313.62,235.8 c -65.12,-24.25 -172.44,-20.94 -173.53,-20.91 h -0.13 -0.13 -1.71 c -67.36,0 -137.27,19 -155.55,24.34 l 0.48,4.27 c 24.13,-6.73 88.2,-22.79 150.13,-22.79 h 1.71 0.13 0.13 c 1.09,-0.04 108.41,-3.35 173.53,20.91 -1.85,21.67 -12.81,139.8 -35.29,193.64 h 2.35 c 24.24,-50.62 35.96,-176.98 37.88,-199.46 z m -421.27,-286.59 1.41,-0.01 1.06,-1.09 c 4.16,-1.68 8.55,-2.59 13.1,-2.59 25.61,0 46.45,28.5 46.45,63.54 0,17.66 -5.3,33.65 -13.82,45.17 11.38,-11.59 18.76,-30.13 18.76,-50.98 0,-35.04 -20.84,-63.54 -46.45,-63.54 -4.55,0 -8.94,0.91 -13.1,2.59 l -1.06,1.09 -1.41,0.01 c -6.47,3.16 -12.27,8.23 -17.06,14.7 3.66,-3.73 7.74,-6.75 12.12,-8.89 z m 81.29,-90.45 c 65.94,-22.81 148.77,-21.4 152.36,-21.33 124.31,7.73 172.65,35.48 191.3,57.4 11.76,13.81 10.85,24.49 10.82,24.83 l -0.06,0.44 v 208.88 c 0,0.06 -0.01,0.12 -0.01,0.18 1.66,-0.75 3.24,-1.67 4.68,-2.8 0.16,-1.04 0.27,-2.1 0.27,-3.19 V 144.5 l 0.06,-0.44 c 0.03,-0.34 0.94,-11.02 -10.82,-24.83 -18.66,-21.92 -67,-49.67 -191.3,-57.4 -3.58,-0.08 -86.42,-1.48 -152.36,21.33 -23.76,8.22 -38.26,19.92 -47.1,31.52 9.02,-9.61 22.37,-18.87 42.16,-25.71 z m 151.75,-69.56 c 17.77,0 32.4,13.67 33.95,31.05 l 4.91,0.47 c 0.1,-1.08 0.17,-2.16 0.17,-3.24 0,-18.8 -15.29,-34.09 -34.09,-34.09 -11.78,0 -22.18,6 -28.3,15.11 6.1,-5.76 14.32,-9.3 23.36,-9.3 z"
       id="path52" />
  </g>
  <circle
     cx="-460.8255"
     cy="598.94"
     r="4.02"
     fill="#1a1a1a"
     id="circle56"
     transform="scale(-1,1)" />
  <path
     d="m 95.135498,621.93 c 0,14.49 5.550002,27.7 14.660002,37.62 v 0.01 c 4.13,4.51 7.65,20.06 22.71,4.73 l -7.41,-82.16 c -7.65,-9.55 -17.28,-4.69 -20.75,0.36 -6.160002,8.95 -9.210002,27.75 -9.210002,39.44 z"
     class="G"
     id="path58" />
  <g
     fill="#24242b"
     id="g106"
     transform="matrix(-1,0,0,1,844.3715,0)">
    <path
       d="m 104.786,547.64 c -22.65,0 -41.07,-18.42 -41.07,-41.07 0,-22.65 18.42,-41.07 41.07,-41.07 22.65,0 41.07,18.42 41.07,41.07 -0.01,22.65 -18.43,41.07 -41.07,41.07 z m 0,-68.57 c -15.17,0 -27.51,12.34 -27.51,27.51 0,15.17 12.34,27.51 27.51,27.51 15.17,0 27.51,-12.34 27.51,-27.51 0,-15.17 -12.35,-27.51 -27.51,-27.51 z m 377.59,111.39 c -9.6,0 -18.94,-3.38 -26.29,-9.52 l 8.7,-10.41 c 4.91,4.11 11.16,6.37 17.59,6.37 15.17,0 27.51,-12.34 27.51,-27.51 0,-15.16 -12.34,-27.5 -27.51,-27.5 -3.79,0 -7.44,0.75 -10.87,2.23 l -5.39,-12.44 c 5.13,-2.22 10.6,-3.35 16.26,-3.35 22.65,0 41.07,18.42 41.07,41.06 0,22.64 -18.42,41.07 -41.07,41.07 z m -277.81,8.44 c -10.89,0 -21.61,-3.77 -30.92,-11.01 -11.5,-8.94 -19.48,-22.17 -22.46,-37.27 -2.98,-15.09 -0.64,-30.37 6.6,-43.01 7.51,-13.11 19.33,-21.85 33.28,-24.6 13.95,-2.76 28.21,0.83 40.14,10.1 11.5,8.94 19.48,22.17 22.46,37.27 v 0 c 2.98,15.1 0.64,30.37 -6.6,43.01 -7.51,13.11 -19.33,21.85 -33.28,24.6 -3.07,0.62 -6.15,0.91 -9.22,0.91 z m -4.37,-96.43 c -1.73,0 -3.47,0.17 -5.19,0.51 -8.09,1.6 -15.04,6.84 -19.57,14.76 -4.8,8.39 -6.33,18.67 -4.3,28.96 2.03,10.29 7.35,19.22 14.99,25.15 7.2,5.6 15.63,7.8 23.71,6.21 8.09,-1.6 15.04,-6.84 19.57,-14.76 4.8,-8.39 6.33,-18.67 4.3,-28.96 v 0 c -2.03,-10.29 -7.35,-19.22 -14.98,-25.15 -5.67,-4.42 -12.1,-6.72 -18.53,-6.72 z"
       id="path60" />
    <path
       d="m 431.226,678.98 h -243.52 c -4.41,0 -8.34,-2.63 -10.03,-6.7 l -56.75,-137.17 12.53,-5.18 56.06,135.5 h 240.03 c 24.23,-50.61 35.95,-176.97 37.88,-199.45 -65.12,-24.25 -172.44,-20.94 -173.53,-20.91 h -0.13 -0.13 -1.71 c -67.36,0 -137.27,19 -155.55,24.34 l 1.65,14.65 -13.48,1.51 -1.9,-16.9 a 10.83,10.83 0 0 1 7.68,-11.61 c 14.38,-4.29 89.29,-25.54 161.62,-25.54 h 1.63 c 6.23,-0.2 113.71,-3.3 180.67,22.54 a 10.91,10.91 0 0 1 6.88,11.01 c -2.11,25.5 -13.96,155.36 -40.14,207.88 -1.88,3.72 -5.61,6.03 -9.76,6.03 z m -32.83,-37 h -80.92 c -11.59,0 -21.34,-8.68 -22.68,-20.19 L 281.106,504.4 a 22.81,22.81 0 0 1 5.87,-18.1 c 4.5,-4.9 10.91,-7.58 17.55,-7.36 l 113.19,3.69 c 6.56,0.21 12.72,3.25 16.89,8.32 4.17,5.07 5.96,11.7 4.9,18.18 l -18.58,113.7 a 22.73,22.73 0 0 1 -22.53,19.15 z m -94.61,-154.91 c -4.11,0 -8.02,1.71 -10.81,4.75 -2.9,3.15 -4.28,7.4 -3.78,11.65 l 13.69,117.39 c 0.86,7.41 7.14,12.99 14.6,12.99 h 80.92 c 7.24,0 13.34,-5.18 14.5,-12.32 l 18.58,-113.7 a 14.71,14.71 0 0 0 -3.15,-11.7 c -2.68,-3.27 -6.65,-5.22 -10.87,-5.35 l -113.19,-3.69 c -0.17,-0.02 -0.33,-0.02 -0.49,-0.02 z"
       id="path62" />
    <path
       d="m 252.586,383.79 h 13.56 v 55.67 h -13.56 z m 56.38,0.56 h 13.56 v 53.78 h -13.56 z"
       id="path64" />
    <path
       d="m 287.776,391.9 -0.25,-0.01 -197.13,-9.14 c -11.88,-0.56 -22.71,-7.44 -28.25,-17.97 -2.53,-4.81 -3.86,-10.22 -3.86,-15.66 v -45.4 h 13.56 v 45.4 a 19.87,19.87 0 0 0 2.3,9.35 20.22,20.22 0 0 0 16.88,10.74 l 196.87,9.13 179.33,-4.89 c 10.97,-0.31 19.56,-9.13 19.56,-20.1 V 144.46 l 0.06,-0.44 c 0.03,-0.34 0.94,-11.02 -10.82,-24.83 -18.66,-21.92 -67,-49.67 -191.3,-57.4 -3.58,-0.08 -86.42,-1.48 -152.36,21.33 -65.75,22.75 -60.63,72.11 -60.57,72.6 l 0.05,0.81 v 6.62 h -13.56 v -6.29 c -0.25,-2.78 -1.05,-16.88 6.22,-33.64 7.21,-16.62 24.07,-39.3 63.43,-52.92 69.44,-24.02 153.7,-22.16 157.25,-22.07 l 0.25,0.01 c 130.44,8.09 181.7,38.79 201.73,63.11 13.76,16.71 13.47,30.68 13.19,33.89 v 208.1 c 0,18.36 -14.39,33.14 -32.75,33.65 z"
       id="path66" />
    <path
       d="m 66.656,310.53 c -33.09,0 -60.01,-34.59 -60.01,-77.1 0,-42.51 26.92,-77.1 60.01,-77.1 33.09,0 60.01,34.59 60.01,77.1 0,42.51 -26.92,77.1 -60.01,77.1 z m 0,-140.64 c -25.61,0 -46.45,28.5 -46.45,63.54 0,35.04 20.84,63.54 46.45,63.54 25.61,0 46.45,-28.5 46.45,-63.54 0.01,-35.04 -20.83,-63.54 -46.45,-63.54 z m 427.39,146.12 -0.93,-13.53 c 22.36,-1.54 39.87,-25.91 39.87,-55.46 0,-29.55 -17.51,-53.91 -39.87,-55.45 l 0.93,-13.53 c 29.44,2.03 52.5,32.33 52.5,68.98 0,36.65 -23.06,66.96 -52.5,68.99 z"
       id="path68" />
    <path
       d="m 86.996,310.53 a 80.78,80.78 0 0 1 -12.77,-1.01 l 1.07,-6.65 -0.01,-6.82 h 0.55 l 0.53,0.09 c 3.47,0.56 7.04,0.84 10.63,0.84 36.83,0 66.8,-29.97 66.8,-66.8 0,-36.83 -29.97,-66.8 -66.8,-66.8 -11.65,0 -23.09,3.04 -33.15,8.81 l -1.35,1.38 -2.91,0.02 -0.05,-6.88 -4.75,-4.65 2,-2.04 h 1.05 a 80.3,80.3 0 0 1 39.16,-10.19 c 44.31,0 80.36,36.05 80.36,80.36 0,44.29 -36.05,80.34 -80.36,80.34 z m 406.58,34.87 v 7.95 c 0,14.56 -11.59,26.47 -26.16,26.88 l -179.58,4.9 -197.13,-9.14 c -9.84,-0.46 -18.25,-6.17 -22.56,-14.36 l 103.07,-17.57 299.61,17.32 c 7.82,0.45 15.54,-2.93 19.99,-9.38 1.38,-2.01 2.42,-4.23 2.76,-6.6 z M 287.686,158.46 c -22.77,0 -41.23,19.41 -41.23,43.35 0,23.94 18.46,43.35 41.23,43.35 22.77,0 41.23,-19.41 41.23,-43.35 0,-23.94 -18.46,-43.35 -41.23,-43.35 z m 8.82,40.77 c -6.84,0 -12.38,-5.83 -12.38,-13.02 0,-7.19 5.54,-13.02 12.38,-13.02 6.84,0 12.38,5.83 12.38,13.02 0,7.19 -5.54,13.02 -12.38,13.02 z m 126.79,-40.77 c -22.77,0 -41.23,19.41 -41.23,43.35 0,23.94 18.46,43.35 41.23,43.35 22.77,0 41.23,-19.41 41.23,-43.35 0,-23.94 -18.47,-43.35 -41.23,-43.35 z m 8.81,40.77 c -6.84,0 -12.38,-5.83 -12.38,-13.02 0,-7.19 5.54,-13.02 12.38,-13.02 6.84,0 12.38,5.83 12.38,13.02 0,7.19 -5.54,13.02 -12.38,13.02 z m -147.79,60.88 158.56,11.75 c 0.88,0.07 1.52,0.86 1.41,1.73 l -4.37,32.61 c -0.11,0.8 -0.81,1.38 -1.62,1.33 l -149.36,-9.52 c -0.73,-0.05 -1.32,-0.6 -1.42,-1.32 l -4.83,-34.85 c -0.14,-0.96 0.65,-1.8 1.63,-1.73 z m 45.83,-200.07 -13.1,-3.51 a 34.47,34.47 0 0 0 1.17,-8.88 c 0,-18.8 -15.29,-34.09 -34.09,-34.09 -18.8,0 -34.09,15.29 -34.09,34.09 0,2.41 0.25,4.79 0.73,7.08 l -13.26,2.82 a 47.86,47.86 0 0 1 -1.03,-9.9 c 0,-26.27 21.38,-47.65 47.65,-47.65 26.27,0 47.65,21.38 47.65,47.65 a 47.89,47.89 0 0 1 -1.63,12.39 z m 287.2,609.63 c -18.94,0 -45.68,-3.04 -75.28,-15.64 -56.24,-23.93 -79.8,-68.84 -80.77,-70.74 l 12.06,-6.2 c 0.22,0.42 22.48,42.53 74.02,64.47 51.73,22.01 94.94,12.37 95.37,12.27 l 3.1,13.2 c -0.91,0.21 -11.59,2.64 -28.5,2.64 z m 16.82,-61.74 c -87.8,-4.18 -121.71,-52.68 -123.11,-54.74 l 11.22,-7.62 -5.61,3.81 5.6,-3.83 c 0.31,0.45 31.92,44.99 112.55,48.83 z"
       id="path70" />
    <path
       d="m 624.196,621.89 c 0,21.79 10.11,41.27 25.89,53.98 a 69.17,69.17 0 0 0 13.01,8.29 l 0.77,-10.95 0.28,-3.96 c -4.82,-2.98 -9.14,-6.69 -12.82,-10.96 -8.45,-9.77 -13.57,-22.49 -13.57,-36.4 0,-16.7 7.38,-31.71 19.05,-41.93 4.23,-3.7 9.02,-6.78 14.22,-9.08 l 1.04,-14.9 a 68.49,68.49 0 0 0 -14.03,6.39 c -20.26,12.11 -33.84,34.26 -33.84,59.52 z m 116.62,-50.58 -0.87,-0.79 c -0.55,-0.5 -1.1,-0.99 -1.66,-1.45 a 68.44,68.44 0 0 0 -10.38,-7.33 l -0.47,6.67 -0.5,7.03 -0.13,1.79 c 4.61,3.44 8.66,7.58 12,12.25 a 19.36,19.36 0 0 1 0.66,0.92 c 6.16,8.96 9.77,19.81 9.77,31.49 0,14.48 -5.55,27.67 -14.63,37.59 0,0.01 -0.01,0.02 -0.03,0.03 v 0.01 c -4.13,4.51 -8.99,8.33 -14.39,11.29 l -0.61,8.68 -0.3,4.19 0.17,0.01 -0.17,2.53 a 69.64,69.64 0 0 0 4.9,-2.2 67.04,67.04 0 0 0 7.49,-4.32 53.06,53.06 0 0 0 1.55,-1.06 c 0.06,-0.04 0.13,-0.08 0.19,-0.13 0.02,-0.02 0.05,-0.03 0.07,-0.05 17.73,-12.56 29.32,-33.24 29.32,-56.57 0,-19.93 -8.46,-37.93 -21.98,-50.58 z m -60.71,-192.4 h 13.56 v 51.69 h -13.56 z m 41.91,1.55 h 13.56 v 51.4 h -13.56 z"
       id="path72" />
    <path
       d="m 728.266,385.69 h -41.65 c -23.34,0 -42.33,-18.99 -42.33,-42.33 v -28.21 h 13.56 v 28.21 c 0,15.86 12.9,28.77 28.77,28.77 h 41.65 c 15.86,0 28.77,-12.9 28.77,-28.77 v -16.45 h 13.56 v 16.45 c 0,23.34 -18.99,42.33 -42.33,42.33 z"
       id="path74" />
    <path
       d="m 803.816,350.23 -8.93,-4.47 c -0.34,-0.17 -34.8,-17.12 -84.45,-23.12 -49.68,-6.01 -96.32,4.58 -96.78,4.69 l -9.08,2.1 11.09,-128.73 4.8,-1.11 c 1.99,-0.46 49.34,-11.24 101.47,-4.94 52.11,6.3 87.41,23.72 88.88,24.46 l 4.12,2.06 z m -125.76,-43.02 c 10.79,0 22.28,0.55 34.01,1.97 37.39,4.52 66.11,14.76 79.91,20.46 l 8.64,-100.3 c -10.58,-4.62 -40.58,-16.43 -80.31,-21.24 -40.42,-4.89 -78.83,1.21 -91.99,3.71 l -8.66,100.5 c 11.55,-2.04 33.03,-5.1 58.4,-5.1 z"
       id="path76" />
    <path
       d="m 802.676,220.39 -13.54,-0.7 1.97,-38.03 c -8.7,-4.19 -32.79,-14.25 -67.24,-16.43 -34.11,-2.16 -61.11,2.28 -71.87,4.47 v 32.58 h -13.56 v -43.24 l 5.06,-1.33 c 1.4,-0.37 34.77,-8.96 81.23,-6.02 46.97,2.97 75.6,19.39 76.8,20.09 l 3.57,2.08 z"
       id="path78" />
    <path
       d="m 817.676,360.8 c -0.72,0 -1.44,-0.05 -2.16,-0.17 l -13.13,-2.05 c -7.31,-1.14 -12.54,-7.81 -11.89,-15.19 l 12.83,-146.02 a 14.83,14.83 0 0 1 5.9,-10.6 14.87,14.87 0 0 1 11.85,-2.66 l 11.4,2.31 c 7.4,1.5 12.49,8.3 11.84,15.82 l -12.55,145.65 c -0.33,3.88 -2.29,7.49 -5.35,9.9 a 14.18,14.18 0 0 1 -8.74,3.01 z m -13.2,-15.62 13.13,2.05 c 0.06,0.01 0.24,0.04 0.43,-0.11 0.19,-0.15 0.21,-0.33 0.21,-0.39 l 12.55,-145.65 a 1.28,1.28 0 0 0 -1.02,-1.37 l -11.4,-2.31 a 1.29,1.29 0 0 0 -1.03,0.23 1.25,1.25 0 0 0 -0.51,0.92 l -12.83,146.04 c -0.02,0.28 0.18,0.55 0.47,0.59 z m -200.48,-1.79 c -0.72,0 -1.44,-0.05 -2.16,-0.17 l -13.13,-2.05 c -7.31,-1.14 -12.54,-7.81 -11.89,-15.19 l 12.83,-146.02 a 14.83,14.83 0 0 1 5.9,-10.6 c 3.39,-2.53 7.7,-3.5 11.84,-2.66 l 11.4,2.31 c 7.4,1.5 12.49,8.3 11.84,15.82 l -12.55,145.65 c -0.33,3.88 -2.29,7.49 -5.35,9.9 -2.49,1.96 -5.58,3.01 -8.73,3.01 z m -13.2,-15.61 13.13,2.05 c 0.06,0.01 0.24,0.04 0.43,-0.11 0.19,-0.15 0.21,-0.33 0.21,-0.39 l 12.55,-145.65 a 1.28,1.28 0 0 0 -1.02,-1.37 l -11.4,-2.31 a 1.22,1.22 0 0 0 -1.02,0.23 1.25,1.25 0 0 0 -0.51,0.92 l -12.83,146.04 c -0.03,0.28 0.17,0.54 0.46,0.59 z M 230.316,672.2 h 13.56 v 161.94 h -13.56 z m 54.24,0 h 13.56 v 147.58 h -13.56 z m 37.97,0 h 13.56 v 146.82 h -13.56 z m 54.24,0 h 13.56 v 158.77 h -13.56 z"
       id="path80" />
    <path
       d="m 501.996,935.08 h -375.44 l 4.84,-9.79 c 16.62,-33.58 42.15,-61.95 73.85,-82.04 32.58,-20.65 70.28,-31.57 109.03,-31.57 38.75,0 76.45,10.92 109.03,31.57 31.7,20.09 57.23,48.46 73.85,82.04 z m -353.25,-13.56 h 331.06 c -33.86,-59.67 -96.31,-96.28 -165.53,-96.28 -69.22,0 -131.67,36.61 -165.53,96.28 z"
       id="path82" />
    <path
       d="M 570.966,921.52 H 99.936 a 6.79,6.79 0 0 0 -6.78,6.78 v 0 a 6.79,6.79 0 0 0 6.78,6.78 h 471.03 a 6.79,6.79 0 0 0 6.78,-6.78 v 0 c 0,-3.75 -3.03,-6.78 -6.78,-6.78 z M 70.496,656.37 c -1.64,-12.74 -7.92,-78.43 29.22,-120.02 l 10.11,9.03 c -33.22,37.19 -27.39,97.54 -25.89,109.26 z m -50.43,21.27 c -3.13,-7.06 -12.91,-33.49 -7.45,-77.33 6.43,-51.45 51.19,-96.65 53.09,-98.54 l 9.58,9.6 c -0.43,0.43 -43.37,43.86 -49.21,90.62 -5.03,40.37 3.62,63.9 6.39,70.15 z"
       id="path84" />
    <path
       d="m 54.436,726.85 c -19.44,0 -36.05,-9.4 -40.69,-24.81 v 0 c -6.07,-20.15 10.62,-43.06 37.19,-51.06 26.57,-8.01 53.13,1.88 59.2,22.03 6.07,20.15 -10.62,43.06 -37.19,51.06 -6.26,1.89 -12.52,2.78 -18.51,2.78 z m -27.71,-28.71 c 3.85,12.77 23.22,18.7 42.31,12.95 19.09,-5.75 31.96,-21.4 28.12,-34.17 -3.85,-12.77 -23.22,-18.7 -42.31,-12.95 -19.09,5.75 -31.97,21.4 -28.12,34.17 z"
       id="path86" />
    <path
       d="m 112.056,751.09 c -4.15,0 -6,-0.68 -7.08,-1.28 l -2.28,-1.27 -14.54,-42.7 12.84,-4.37 12.27,36.04 4.3,-0.36 c 4.34,-0.51 9.97,-4.79 12.39,-7.18 -0.31,-2.56 -1.63,-8.69 -5.55,-22.82 -3.59,-12.94 -5.13,-25.68 -5.74,-32.31 -4.48,-1.01 -10.44,1.84 -12.41,3.08 l -7.32,-11.41 c 1.57,-1.01 15.65,-9.66 27.99,-2.92 2.92,1.6 4.82,4.54 5.07,7.89 0.31,4 1.61,18.13 5.48,32.04 7.05,25.37 6.98,28.87 5.01,32.42 -2.06,3.71 -12.8,13.45 -23.35,14.68 -2.91,0.33 -5.22,0.47 -7.08,0.47 z m -1.76,-13.66 z m 19.73,-6.28 z"
       id="path88" />
    <path
       d="m 33.886,808.22 c -7.52,0 -11.4,-0.53 -11.71,-0.58 l -4.39,-0.63 -1.18,-4.28 -15.19,-56.94 c -2.44,-10.9 -3.77,-46.86 13.9,-60.16 l 8.16,10.83 c -10.68,8.05 -11.03,36.5 -8.82,46.37 1.83,8.17 10.49,39.78 13.77,51.71 6.03,0.27 18.39,0.26 37.08,-2.36 20.22,-2.83 37.24,-11.82 44.77,-16.34 l -8.51,-30.12 13.05,-3.69 8.93,31.61 c 1.39,4.91 -0.67,10.22 -5,12.91 -7.43,4.61 -27.29,15.69 -51.36,19.05 -14.85,2.09 -25.99,2.61 -33.5,2.62 z"
       id="path90" />
    <path
       d="m 67.776,802.08 a 3.41,3.41 0 0 1 -3.28,-2.53 l -14.33,-54.38 c -0.48,-1.81 0.6,-3.66 2.41,-4.14 1.81,-0.48 3.66,0.6 4.14,2.41 l 14.33,54.38 c 0.48,1.81 -0.6,3.66 -2.41,4.14 -0.28,0.09 -0.57,0.12 -0.86,0.12 z m 666.8,-142.56 -1.11,15.7 -0.25,3.42 -0.07,1.09 -0.35,4.89 -8.62,-0.6 -4.73,-0.33 -0.17,-0.01 0.3,-4.19 0.61,-8.68 c 5.4,-2.96 10.26,-6.78 14.39,-11.29 z m 14.07,-200.49 -0.09,2.91 -7.74,109.37 -1.35,19.09 -0.66,-0.92 c -3.34,-4.67 -7.39,-8.81 -12,-12.25 l 0.13,-1.79 0.49,-7.03 0.48,-6.67 7.12,-100.7 c 0.04,-0.65 0.06,-1.34 0.06,-2.01 0,-14.65 -11.47,-26.94 -26.12,-27.96 -7.49,-0.53 -14.72,1.89 -20.39,6.81 a 27.9,27.9 0 0 0 -9.59,19.24 l -6.92,98.86 -1.04,14.9 -6.88,98.37 -0.28,3.96 -0.77,10.95 -0.22,3.18 -6.67,-0.46 h -6.88 l 1.02,-14.61 0.98,-13.98 5.48,-78.33 0.98,-13.98 0.25,-3.61 7.42,-106.2 c 0.78,-11.09 5.83,-21.22 14.23,-28.52 8.4,-7.3 19.14,-10.89 30.24,-10.11 21.71,1.52 38.72,19.75 38.72,41.49 z"
       id="path92" />
    <path
       d="m 687.086,785.72 c -0.97,0 -1.95,-0.03 -2.93,-0.1 -22.9,-1.6 -40.23,-21.54 -38.63,-44.45 l 4.81,-68.9 13.53,0.95 -4.81,68.9 c -1.08,15.45 10.61,28.89 26.05,29.97 15.46,1.09 28.91,-10.61 29.99,-26.05 l 5.02,-71.75 13.53,0.95 -5.02,71.75 c -1.54,21.91 -19.88,38.72 -41.54,38.73 z M 482.376,590.46 h -0.19 l 3.85,4.88 c 10.29,-2.2 19.15,-8.26 25,-16.6 -7.4,7.24 -17.51,11.72 -28.66,11.72 z M 75.446,309.7 l -3.6,0.53 v 5.45 c 3.36,0.43 6.78,0.67 10.21,0.67 25.87,0 48.91,-12.3 63.62,-31.35 -14.68,15.7 -35.54,25.54 -58.68,25.54 -3.88,-0.01 -7.76,-0.3 -11.55,-0.84 z"
       id="path94" />
    <use
       xlink:href="#C"
       id="use96"
       x="0"
       y="0"
       width="100%"
       height="100%" />
    <use
       xlink:href="#C"
       x="-22.370001"
       y="292.88"
       id="use98"
       width="100%"
       height="100%" />
    <use
       xlink:href="#C"
       x="69.839996"
       y="291.14001"
       id="use100"
       width="100%"
       height="100%" />
    <path
       d="m 733.146,185.17 c -0.19,0.01 -0.38,-0.01 -0.57,-0.06 -13.55,-3.31 -24.97,-1.35 -25.08,-1.32 a 2.04,2.04 0 0 1 -2.36,-1.64 2.04,2.04 0 0 1 1.64,-2.36 c 0.5,-0.09 12.34,-2.15 26.77,1.38 1.09,0.27 1.76,1.37 1.49,2.46 -0.22,0.89 -1.01,1.5 -1.89,1.54 z m -23.22,232.37 c -11.1,-0.78 -21.84,2.81 -30.24,10.11 -8.4,7.3 -13.45,17.43 -14.23,28.52 l -7.42,106.2 -0.25,3.61 -0.98,13.98 -5.48,78.33 -0.98,13.98 h -0.01 l -0.25,3.6 -4.56,65.3 c -1.6,22.9 15.73,42.84 38.63,44.44 a 41.2,41.2 0 0 0 2.93,0.11 c 21.66,-0.01 40,-16.82 41.53,-38.74 l 4.7,-67.25 0.09,-1.22 0.23,-3.28 -0.17,-0.01 1.11,-15.7 c -4.13,4.51 -8.99,8.33 -14.39,11.29 l -0.61,8.68 -0.3,4.19 0.17,0.01 -0.17,2.53 -4.19,59.82 c -1.08,15.44 -14.52,27.14 -29.99,26.05 -15.44,-1.08 -27.13,-14.53 -26.05,-29.98 l 3.83,-54.77 0.22,-3.18 0.77,-10.95 0.28,-3.96 6.88,-98.37 1.04,-14.9 6.92,-98.86 a 27.9,27.9 0 0 1 9.59,-19.24 c 5.67,-4.92 12.9,-7.34 20.39,-6.81 14.65,1.02 26.12,13.31 26.12,27.96 0,0.67 -0.02,1.36 -0.06,2.01 l -7.12,100.7 -0.47,6.67 -0.5,7.03 -0.13,1.79 c 4.61,3.44 8.66,7.58 12,12.25 l 2.01,-18.17 7.74,-109.37 a 47.86,47.86 0 0 0 0.09,-2.91 c 0,-21.74 -17.01,-39.97 -38.72,-41.49 z"
       id="path102" />
    <path
       d="m 738.286,569.07 -10.85,-0.66 h -0.01 c 0,0 -36.54,-1.3 -40,23.13 l -3.7,61.62 c -0.81,13.58 15.88,25.39 29.45,26.21 l 6.4,0.12 12.09,0.21 1.48,0.03 h 0.25 l 0.08,-1.27 1.13,-18.98 -0.03,0.04 v -0.01 0.01 c -4.13,4.51 -8.99,8.33 -14.39,11.29 l 11.56,-5.34 c 0,0 -33.71,4.2 -33.73,-16.64 l 3.38,-56.44 c 5.49,-15.29 36.35,-9.41 36.35,-9.41 l -10.94,-5.74 c 4.61,3.44 8.66,7.58 12,12.25 l 1.14,-18.96 0.08,-1.35 z"
       id="path104" />
  </g>
  <circle
     cx="-282.89548"
     cy="621.32001"
     r="4.02"
     fill="#512b18"
     id="circle108"
     transform="scale(-1,1)" />
  <circle
     cx="-456.22549"
     cy="526.51001"
     r="4.02"
     fill="#1a1a1a"
     id="circle110"
     transform="scale(-1,1)" />
  <defs
     id="defs114">
    <path
       id="B"
       d="M241.526 207.66c0 23.94 18.46 43.35 41.23 43.35 13.57 0 25.6-6.89 33.12-17.53-7.37 7.26-17.28 11.72-28.18 11.72-22.77 0-41.23-19.41-41.23-43.35 0-9.67 3.02-18.61 8.11-25.82-8.03 7.91-13.05 19.15-13.05 31.63z" />
    <path
       id="C"
       d="M264.716 382.96c-.48 13.16-1.33 43.71 1.43 32.54 3.49-14.09 42.81-24.19 42.81-24.19l-1.26-8.36h-42.98z" />
  </defs>
</svg>
